<?xml version="1.0" standalone="no"?>
<!DOCTYPE svg PUBLIC "-//W3C//DTD SVG 20010904//EN"
 "http://www.w3.org/TR/2001/REC-SVG-20010904/DTD/svg10.dtd">
<svg version="1.0" xmlns="http://www.w3.org/2000/svg"
 width="1633.000000pt" height="1628.000000pt" viewBox="0 0 1633.000000 1628.000000"
 preserveAspectRatio="xMidYMid meet">

<g transform="translate(0.000000,1628.000000) scale(0.100000,-0.100000)"
fill="#000000" stroke="none">
<path d="M8165 16269 c-839 -49 -1664 -264 -2400 -623 -431 -211 -804 -444
-1204 -754 -437 -339 -930 -834 -1242 -1247 -372 -493 -635 -1009 -764 -1500
-39 -145 -85 -403 -85 -471 0 -37 -4 -46 -22 -53 -13 -5 -66 -41 -118 -81
-1062 -811 -1909 -2340 -2214 -3997 -152 -824 -149 -1620 10 -2413 118 -592
328 -1194 599 -1715 835 -1608 2246 -2732 4000 -3185 1086 -280 2342 -302
3595 -64 207 40 194 40 500 0 743 -96 1491 -97 2170 0 1214 171 2272 632 3160
1375 157 131 448 414 600 585 798 892 1338 2060 1509 3264 50 352 55 436 56
880 0 454 -7 561 -61 940 -154 1076 -578 2203 -1159 3080 -228 346 -412 575
-676 845 l-167 170 23 45 c13 25 31 71 40 102 l16 56 -89 269 c-207 621 -436
1126 -740 1633 -690 1153 -1656 1998 -2809 2459 -784 312 -1662 452 -2528 400z
m865 -585 c674 -57 1308 -232 1898 -524 381 -187 704 -399 1043 -681 162 -135
495 -468 639 -639 486 -577 874 -1255 1170 -2045 l68 -179 -38 -17 c-81 -36
-231 -216 -246 -294 -3 -18 -3 -43 1 -54 3 -11 63 -69 133 -128 163 -137 548
-522 684 -683 780 -926 1234 -1989 1354 -3174 33 -334 29 -864 -12 -1271 -102
-1042 -412 -2007 -902 -2818 -443 -733 -1002 -1304 -1697 -1735 -171 -105
-571 -307 -750 -378 -1055 -415 -2240 -509 -3600 -285 -152 26 -443 83 -667
132 -55 12 -58 12 -98 -15 -23 -15 -97 -81 -164 -146 l-122 -119 -134 -15
c-1604 -181 -3000 79 -4160 774 -561 336 -1086 803 -1505 1335 -784 997 -1256
2278 -1346 3648 -15 234 -6 802 15 997 102 902 374 1682 848 2428 311 491 742
976 1191 1341 69 56 120 106 124 119 4 17 10 21 22 16 70 -29 83 -11 110 151
63 381 204 802 395 1183 372 742 972 1429 1717 1964 938 674 2071 1067 3251
1128 206 11 551 4 778 -16z"/>
<path d="M9640 10026 c-109 -25 -171 -68 -215 -147 -26 -47 -30 -64 -29 -129
0 -87 20 -133 81 -192 50 -49 120 -79 276 -122 70 -19 139 -42 153 -51 49 -32
52 -88 6 -138 -69 -73 -251 -59 -302 25 -11 18 -25 50 -31 72 l-10 38 -102 -7
c-56 -4 -105 -9 -108 -11 -10 -6 10 -100 31 -149 29 -67 100 -138 173 -171 59
-28 68 -29 207 -29 165 1 222 16 298 80 122 105 134 309 26 425 -56 60 -97 80
-284 134 -178 51 -200 63 -200 111 0 29 6 39 32 55 67 40 176 37 228 -6 17
-14 34 -43 40 -65 l11 -39 111 0 111 0 -6 52 c-13 105 -80 198 -172 239 -83
37 -225 48 -325 25z"/>
<path d="M12050 9860 l0 -159 -52 32 c-47 30 -58 32 -137 32 -72 0 -94 -4
-134 -25 -132 -67 -197 -231 -169 -423 15 -103 50 -174 113 -231 104 -94 231
-101 348 -21 l51 35 0 -35 0 -35 100 0 100 0 0 495 0 495 -110 0 -110 0 0
-160z m-75 -284 c42 -27 58 -73 63 -172 5 -110 -16 -171 -70 -204 -63 -38
-146 -14 -181 53 -39 75 -32 241 13 295 43 53 119 65 175 28z"/>
<path d="M12410 9965 l0 -55 105 0 105 0 0 55 0 55 -105 0 -105 0 0 -55z"/>
<path d="M10420 9950 l-95 -58 -5 -69 -5 -68 -42 -3 -43 -3 0 -85 0 -84 44 0
45 0 3 -234 c3 -258 4 -259 72 -310 36 -27 171 -35 231 -13 l40 14 -3 64 c-4
103 -7 110 -41 98 -16 -6 -42 -9 -58 -7 l-28 3 -3 193 -2 192 65 0 65 0 0 85
0 85 -65 0 -65 0 0 130 c0 72 -3 130 -7 129 -5 0 -51 -27 -103 -59z"/>
<path d="M13048 9760 c-204 -36 -332 -224 -299 -440 21 -135 85 -226 196 -276
195 -90 408 -24 503 154 56 105 59 262 7 369 -33 67 -119 146 -188 171 -64 24
-156 33 -219 22z m142 -191 c58 -33 83 -87 84 -179 1 -89 -21 -143 -73 -177
-73 -49 -175 -20 -216 62 -29 57 -27 174 3 232 40 76 128 103 202 62z"/>
<path d="M10752 9473 c4 -260 6 -281 27 -328 29 -65 46 -83 106 -111 91 -43
209 -30 289 31 l45 34 3 -37 3 -37 98 -3 97 -3 0 366 0 365 -104 0 -104 0 -4
-237 c-3 -202 -6 -243 -21 -270 -35 -66 -141 -86 -188 -37 -24 26 -24 26 -27
285 l-3 259 -111 0 -111 0 5 -277z"/>
<path d="M12410 9385 l0 -365 105 0 105 0 0 365 0 365 -105 0 -105 0 0 -365z"/>
<path d="M5576 8919 c-536 -48 -979 -337 -1205 -787 -151 -301 -217 -660 -191
-1046 40 -599 272 -1085 642 -1346 202 -143 435 -217 757 -241 452 -34 831 85
1111 347 82 78 192 215 232 290 l22 42 -83 78 c-90 85 -153 167 -197 257 -17
34 -34 56 -42 55 -7 -2 -26 -35 -41 -75 -120 -307 -337 -502 -647 -580 -105
-26 -382 -23 -486 5 -237 65 -420 181 -544 345 -299 398 -341 1254 -86 1751
145 283 413 464 747 505 376 46 672 -58 855 -301 64 -84 136 -223 166 -320 10
-32 24 -58 31 -58 7 0 28 30 47 68 47 93 114 179 204 262 l76 70 -24 42 c-81
148 -254 336 -396 428 -189 124 -385 187 -644 210 -129 11 -163 11 -304 -1z"/>
<path d="M3275 8463 c-259 -22 -479 -89 -629 -192 -106 -73 -195 -188 -253
-324 -33 -79 -77 -227 -69 -235 3 -3 383 -61 408 -62 4 0 14 26 23 58 43 149
128 273 223 325 96 52 189 70 372 70 183 0 274 -17 373 -70 140 -75 191 -175
192 -377 l0 -120 -60 -18 c-98 -29 -287 -65 -485 -93 -507 -71 -570 -84 -703
-151 -172 -87 -272 -183 -342 -329 -56 -117 -69 -177 -69 -305 1 -196 57 -334
189 -466 67 -68 97 -90 176 -127 286 -137 680 -128 996 23 97 46 238 135 312
198 l35 29 34 -20 c48 -28 295 -107 306 -97 4 5 -14 54 -42 112 -101 206 -177
482 -203 743 -16 164 -6 444 21 604 38 217 104 407 199 572 31 55 44 86 37 90
-19 11 -424 107 -541 128 -189 35 -356 46 -500 34z m642 -1435 c-3 -90 -13
-194 -21 -233 -47 -211 -211 -384 -436 -459 -217 -71 -483 -51 -613 48 -96 74
-143 176 -135 295 12 166 121 276 318 324 36 9 177 34 314 57 222 36 468 91
536 119 14 5 29 10 34 10 5 1 6 -67 3 -161z"/>
<path d="M7665 8464 c-204 -28 -293 -53 -420 -116 -310 -154 -501 -421 -571
-795 -22 -117 -30 -453 -15 -581 24 -191 81 -375 157 -504 155 -266 413 -441
734 -499 106 -20 374 -17 470 5 469 104 769 405 854 855 40 210 45 514 11 706
-85 486 -405 823 -864 911 -76 15 -300 26 -356 18z m240 -369 c221 -39 417
-214 499 -442 50 -141 61 -222 61 -438 0 -151 -5 -222 -18 -288 -49 -242 -147
-406 -308 -513 -105 -69 -191 -96 -326 -102 -213 -9 -351 44 -493 187 -168
168 -233 368 -233 711 1 187 18 308 62 438 40 115 84 185 172 274 60 60 95 85
160 116 140 67 270 85 424 57z"/>
<path d="M10988 8365 c-235 -37 -427 -133 -589 -294 -228 -228 -339 -545 -339
-966 0 -329 67 -583 211 -797 97 -144 266 -280 436 -352 268 -113 644 -124
926 -27 196 68 364 199 481 375 52 77 125 233 140 299 l6 27 -233 0 -233 0
-31 -62 c-112 -229 -303 -348 -555 -348 -219 0 -411 91 -534 253 -90 119 -155
295 -170 465 l-7 72 892 0 891 0 0 108 c0 532 -192 920 -557 1128 -198 113
-480 158 -735 119z m357 -360 c164 -42 325 -167 393 -307 37 -76 82 -240 82
-299 l0 -39 -651 0 -651 0 6 48 c4 26 14 76 23 112 59 243 239 428 473 485 76
19 252 19 325 0z"/>
<path d="M13130 8374 c-14 -2 -56 -9 -95 -15 -247 -40 -452 -161 -565 -334
-119 -183 -132 -427 -33 -628 52 -103 161 -210 271 -265 104 -52 297 -115 572
-187 254 -67 388 -109 451 -141 167 -84 185 -299 38 -446 -91 -91 -196 -127
-389 -135 -166 -7 -270 11 -378 63 -119 58 -214 171 -253 302 l-12 42 -218 0
-218 0 6 -32 c14 -74 58 -198 99 -279 125 -243 328 -382 635 -433 448 -74 861
30 1081 273 70 77 122 167 155 266 23 69 27 97 27 205 1 193 -44 310 -165 431
-116 117 -272 179 -832 333 -368 102 -400 115 -469 196 -84 98 -69 220 39 321
89 84 215 114 437 107 118 -4 152 -9 208 -30 116 -43 207 -133 245 -239 l18
-49 216 0 217 0 -14 63 c-79 342 -265 512 -644 588 -91 18 -371 34 -430 23z"/>
<path d="M9935 8340 c-123 -22 -227 -82 -324 -186 l-71 -76 0 127 0 128 -31
-7 c-17 -3 -130 -6 -250 -6 l-219 0 0 -1212 0 -1211 167 6 c91 4 215 7 275 7
l108 0 0 708 c0 739 3 807 46 967 42 151 119 257 231 312 53 25 68 28 172 29
l114 1 44 59 c58 78 125 146 198 202 33 25 64 49 69 53 13 12 -86 55 -179 79
-90 23 -275 34 -350 20z"/>
</g>
</svg>
