<?xml version="1.0" encoding="UTF-8" standalone="no"?>
<svg
   xmlns:dc="http://purl.org/dc/elements/1.1/"
   xmlns:cc="http://creativecommons.org/ns#"
   xmlns:rdf="http://www.w3.org/1999/02/22-rdf-syntax-ns#"
   xmlns:svg="http://www.w3.org/2000/svg"
   xmlns="http://www.w3.org/2000/svg"
   xmlns:xlink="http://www.w3.org/1999/xlink"
   xmlns:sodipodi="http://sodipodi.sourceforge.net/DTD/sodipodi-0.dtd"
   xmlns:inkscape="http://www.inkscape.org/namespaces/inkscape"
   width="393.27515"
   height="799.99634"
   id="svg2"
   version="1.1"
   inkscape:version="0.91 r13725"
   sodipodi:docname="Flag_of_Portugal (1).svg">
  <metadata
     id="metadata120">
    <rdf:RDF>
      <cc:Work
         rdf:about="">
        <dc:format>image/svg+xml</dc:format>
        <dc:type
           rdf:resource="http://purl.org/dc/dcmitype/StillImage" />
        <dc:title></dc:title>
      </cc:Work>
    </rdf:RDF>
  </metadata>
  <defs
     id="defs118">
    <clipPath
       clipPathUnits="userSpaceOnUse"
       id="clipPath4317">
      <path
         inkscape:connector-curvature="0"
         style="opacity:0.45400002;fill:#800000;fill-rule:evenodd"
         d="m 483.89514,0 -0.47084,0.38157 -0.10655,0.085 -0.25054,0.28653 -0.54715,0.62635 -0.35854,0.12527 -0.9964,0.34126 -0.40893,0.14254 -0.17422,0.009 -0.73866,0.0432 -1.04248,0.059 -0.10511,0.11231 -1.17062,1.2383 -1.41397,0.42333 -1.70194,1.09431 -1.27863,0.79194 -2.15118,0.86249 -1.07703,1.21239 -0.99641,0.56586 -0.68538,0.1368 -2.95752,-0.20014 -0.68251,0.20446 -1.62851,1.12743 -0.86825,0.14255 -1.32181,-0.23183 -2.11951,0.65515 -1.27286,0.0518 -0.74299,-0.35998 -3.14183,-0.14974 -2.15982,0.54859 -0.72138,0.0216 -0.68251,0.0504 -2.04175,-0.2347 -1.04392,0.29518 -0.57164,0.30813 -0.76458,2.13967 -0.92296,0.83514 -3.2743,0.6825 -3.71922,-0.36861 -1.00504,-0.15551 -1.97264,0.52412 -1.52628,0.57451 -1.36789,1.61123 -0.7617,0.89562 -0.95609,3.42548 -0.40316,0.72858 -2.09647,2.16847 -3.06696,1.65011 -2.75306,1.01511 -1.65875,1.41109 -1.1375,3.71202 -0.72859,1.41397 -0.93016,1.03384 -1.51908,0.88697 -2.31534,0.99928 -0.70554,0.47516 0.17711,0.62059 -2.33694,1.91216 -0.7257,1.51621 -0.0432,0.60475 -0.37149,0.51116 -1.04968,0.15406 -0.84953,1.10152 -0.6825,0.17134 -0.92729,-0.38156 -0.34558,0.33837 -0.82073,3.21958 -0.72282,1.5162 0.18143,2.18718 0.89704,1.22966 0,0.78042 -0.59755,1.08855 -0.0317,0.78042 0.39741,1.4658 -0.54284,1.43989 -0.0461,2.05328 -0.38012,1.82145 1.06263,4.58315 1.12024,2.91865 1.67169,2.05328 0.29662,0.36429 0.44492,0.26062 0.5414,0.68682 0.55436,0.92585 0.21742,2.78185 0.16415,2.04464 1.72786,5.03384 0.30093,0.95464 0.40174,1.61124 0.17422,2.81928 1.12167,4.47517 1.37509,2.30669 0.69835,2.26351 0.44204,0.35997 0.43196,0.0691 2.22319,0.35133 -0.94745,0.57452 -1.02519,-0.37005 -0.99496,-0.35565 -0.85098,-1.12744 -0.54427,-1.56371 -0.45501,-0.43772 -0.2635,1.21382 0.63643,2.73002 -0.26061,2.09647 0.72569,0.78042 0.67243,1.20375 0.40173,2.35277 0.0187,0.036 -0.21598,1.53348 -0.66379,5.25846 -0.37869,1.11015 0.29662,0.90857 0.0331,1.48308 1.04823,2.2851 0.63643,0.50108 0.80778,1.83441 0.0201,1.16631 1.11447,2.91865 0.54716,0.75017 0.65371,1.03816 0.15695,1.79121 -0.17423,1.60403 0.80777,3.3895 0.62923,1.14039 0.0763,1.58675 0.18863,4.72714 1.08424,3.87473 -0.21023,1.59828 1.04104,2.28509 1.23254,1.07559 1.22102,2.88553 0.095,0.22751 0.0821,0.1915 0.54139,1.27862 0.87402,1.01944 0.55435,0.29229 2.08928,-0.51403 0.013,0 0.77897,0 0.11519,0.20446 0.19726,0.38157 -0.28941,0.64363 -0.0994,0.22174 -0.20159,0.25774 -0.34268,0.43772 -0.45501,0.23182 -0.60907,-0.0432 -1.18791,-0.79769 -0.023,0.2491 0.14543,1.58675 0.59036,1.84593 -0.0619,0.95608 0.81065,2.82938 -0.0922,1.83873 0.52412,2.80346 -0.0864,1.20806 0.40605,2.15695 0.58459,3.10439 0.15119,0.80058 -0.44636,1.25989 -0.0288,1.6242 -0.37581,1.92944 -0.0432,2.97048 -0.61339,1.43988 -0.40893,1.92513 0.007,0.75307 0.0101,1.12022 -0.29806,2.13391 -2.31389,7.02952 -0.68971,2.85961 -1.401,8.95752 -0.21743,1.39813 -1.43124,5.22535 -1.06407,2.41756 -0.20447,2.41325 -0.61339,1.37077 -1.09863,5.91936 -0.0663,0.35278 -1.03527,2.23758 -0.29374,1.31893 1.05976,-0.22174 1.22966,-1.12023 1.15334,-1.92369 0.42621,-1.60691 0.006,-3.60547 2.32398,-2.86249 0.10943,-1.32902 0.25342,-3.10439 -0.36285,-2.38733 0.86105,-0.67674 0.4622,-1.60836 1.72354,-2.02303 0.0403,-0.2995 0.51404,-3.89632 0.48092,-1.18791 0.60763,-2.90137 0.41469,-1.98415 0.4622,0.71994 -0.65226,2.07919 -0.0172,1.97984 -1.08136,3.61699 0.34557,0.51548 0.45933,-0.12815 1.26278,-1.25702 0.28366,-0.78906 -0.53132,-1.46148 0.0388,-0.67242 0.85096,-2.01009 0.17135,-0.17134 0.0562,0.2491 -0.34269,2.43052 0.18143,0.83946 0.66235,-0.34701 0.0734,-0.60476 0.45788,-0.0432 0.11519,0.72426 0.013,0.28366 0.81785,0.66811 -0.84377,0.32253 -1.31174,0.93736 -1.96256,2.31534 -0.84378,0.42044 -0.4118,0.20015 -0.21455,0.22318 -0.94311,0.9604 -0.3499,0.93449 0.83802,1.09287 0.13534,1.37653 -0.23182,1.9496 0.30382,1.15335 0.96616,1.61987 1.24982,-0.72858 1.66163,0.60475 1.07127,-0.0907 2.26926,-1.05399 0.61915,0.28797 -0.60907,0.69835 0.58027,0.25774 0.085,0.31677 -1.72067,0.53132 -1.99568,-0.61339 -0.77754,0.73722 -1.07127,-0.0562 -0.7689,0.35278 -1.42404,0.0633 -0.50828,0.51835 0.9964,0.76746 0.35853,1.60835 0.88409,-0.14686 0.25486,0.84088 -0.8121,0.14112 -0.35853,-0.0216 -0.54427,0.52412 -0.78475,2.2923 -1.77393,2.33693 -0.33981,0.44492 0.50684,1.3031 0.4622,1.19654 2.22894,-0.30957 0.64363,-0.73722 0.7185,-2.65371 0.0792,-0.0633 0.73866,-0.60907 -0.80777,2.07919 -0.31391,1.75666 -0.85385,0.78042 -1.33909,0.27502 -0.23614,2.04463 -0.0706,0.58316 -1.48597,-2.9748 -0.82792,-1.65443 -0.72571,-1.02952 -0.87977,-0.57307 -0.83513,0.4406 -1.26566,1.86034 0.62635,1.17494 -1.13463,1.67459 0.33982,0.37436 -0.28942,1.39238 0.0288,1.40964 -0.59036,0.30958 -0.2203,0.57739 0.0101,1.69475 -0.62058,1.93664 -0.3859,0.0907 0.64075,-6.00144 0.36861,-1.964 0.66235,-1.76098 -0.2563,-0.19726 -0.60331,0.0605 -0.53708,0.65947 -0.18575,0.54427 -0.22029,0.64363 -0.73579,4.02448 -3.06263,13.17927 -0.25054,1.08135 -2.31534,9.99136 -1.03527,5.8085 -0.8265,3.14182 -2.16991,8.23471 -0.946,2.33981 -2.41036,8.01152 -0.24478,0.80922 -1.70051,4.28365 -0.53852,0.99784 -0.43484,0.81498 -0.77466,2.96904 -1.20662,2.74442 0.69834,1.30742 1.08136,1.1879 1.30597,0.67674 0.96328,0.83082 0.62348,0.53996 0.80345,1.3031 0.86105,0.27933 1.20085,-0.0691 2.57165,-0.14542 3.21382,2.99207 1.3391,2.15983 0.70841,0.0734 0.33981,-0.29662 0.68251,-1.40533 1.22102,-1.6501 0.66235,-0.17567 -1.15767,2.11664 -0.46796,0.85817 -0.31966,0.71994 -0.53708,0.51836 -0.66954,0.0691 -0.90713,-0.48957 -1.30885,-1.19078 -0.4982,-0.45501 0.14542,-0.67674 -0.59755,-0.71563 -0.2275,-0.2707 -2.91433,-1.09719 -1.38517,-0.17998 -0.0691,0.78041 1.39813,1.91217 0.88697,0.8049 -0.94312,0.1843 -0.43485,-0.19294 -0.64939,-1.06263 -0.32973,-0.62203 -0.54427,-1.01945 -0.36861,-0.69978 -0.64363,-0.11087 -0.27358,0.15407 -0.0763,4.24334 -1.77394,4.21454 -1.79697,6.60187 -0.79483,2.45933 -1.50323,4.49244 -1.48741,5.02807 -0.0749,0.26063 -0.2347,0.60907 -0.14398,0.38157 -3.30166,8.66666 -1.25846,4.00432 -0.85529,2.72138 -1.39093,2.74299 -0.22462,0.44636 -0.17135,0.57739 -0.71563,2.41757 -3.79697,9.55939 -0.67387,1.22103 -0.33261,1.60403 -0.16847,0.80058 -0.56731,1.53491 -0.56011,1.51764 -0.0591,2.69259 -1.05832,3.50612 -1.46148,6.09071 -1.04823,4.38013 0.0691,0.66091 0.0331,0.32541 0.90424,0.35997 0.27358,0.40749 0.0562,0.77034 -0.45933,1.21382 -2.68971,4.03312 -3.41972,3.84881 -0.63211,1.49748 -0.39597,0.38013 -0.90424,0.0994 -0.049,1.31606 0.82073,0.71994 -0.47084,0.7761 -0.84377,0.44924 -0.58028,-1.23398 -0.7689,0.0216 -1.69474,1.39237 -3.21814,4.08495 -1.01224,0.5702 -0.34558,1.58243 -2.47372,4.48236 0.0734,0.25342 1.51332,0.56588 0.71562,0.72858 0.99784,2.22894 0.36286,0.18431 0.455,-0.52701 0.64363,0.20159 0.39597,0.64795 -0.17567,0.47084 -1.05832,-0.0691 -0.14542,0.40317 0.53131,1.55652 -0.21454,0.43628 -0.65947,0.12095 -0.36573,-1.2527 -1.56659,0.18431 -0.91001,0.98632 -0.31965,-0.0476 -0.16415,-0.37725 0.55292,-1.06696 -0.22319,-0.45932 0.0849,-0.52268 0.81786,-0.30814 -0.95033,-1.56083 -0.24334,-1.4658 -0.7617,-0.33406 -0.29661,-0.75882 -1.01944,1.4874 -6.2275,5.054 -2.63499,1.64579 -0.75162,0.47516 -0.41613,0.0648 -1.2527,-0.36861 -0.58603,1.59827 -0.62059,0.61339 -1.26854,0.095 -0.24766,-0.0648 -0.85385,-0.54428 -0.47229,-1.01224 -0.36573,-0.18863 -0.98488,0.39021 -1.29301,0.0605 -1.00936,0.57019 -0.35854,0.87833 0.89993,0.78042 0.88985,0.21886 2.29806,-0.20158 0.58027,0.27358 0.35277,0.54139 0.44925,2.33981 -0.2707,1.08424 1.5162,1.65875 0.48812,0.92153 -0.19726,1.1447 0.38588,0.97192 0.23039,0.78906 0.76745,0.97336 0.32686,1.63715 -0.18431,1.7869 -0.77466,2.85097 0.24047,1.40245 -0.0993,0.32109 -0.63931,2.10511 -0.12527,1.63716 -1.57668,5.31893 -1.06407,2.70122 -2.70699,5.57955 -0.2275,0.86681 -0.23758,0.90425 -1.21382,1.57668 -1.53348,2.94888 -0.1843,0.82793 0.67242,2.04032 0.11231,1.08855 -0.19726,2.8121 -0.4622,2.55004 0.17854,0.97768 -0.40605,1.62419 0.2635,0.93881 0.38877,1.38516 -0.16415,1.57236 0.96617,3.72066 -0.30958,1.509 -0.46796,1.53492 c -0.0922,0 -3.30166,8.79049 -3.30166,8.79049 l -0.73434,2.02016 -3.11303,6.53996 -1.05255,1.7797 -1.30886,3.99424 0.42909,1.10151 0.22462,1.64579 0.56011,0.64794 1.41829,0.76747 0.37581,0.89128 -0.39597,2.19007 -1.1807,3.84593 0.44492,0.85241 0.52124,0.49244 2.14975,0.89993 2.31533,-0.17135 0.50108,0.21023 0.67819,0.76745 0.4622,0.14112 1.43125,-1.46581 0.62347,-0.52699 1.19942,-0.0893 1.9784,0.71563 2.50684,1.29014 1.84305,1.52915 1.24838,0.013 1.01224,0.56588 0.69979,0.0518 0.37293,-0.60474 0.31245,-0.50541 0.77466,-0.2491 2.20302,-1.35061 1.48741,-0.072 0.4118,-0.24478 0.48812,-0.28222 1.15767,-0.33117 0.92873,0.095 1.93952,0.19295 1.17639,0.48092 3.62419,0.16126 1.54931,-0.53563 0.51836,-0.17999 1.78978,0.26206 1.34917,-1.04967 2.25486,-0.55292 1.26998,-0.72426 1.65443,-2.17423 1.40532,-2.82793 0.65515,-2.06624 0.23758,-2.14399 -0.0749,-2.08351 0.64939,-4.22606 0.95176,-2.71707 0.37005,-1.05831 0.10224,-0.2923 1.49028,-3.00936 0.54715,-0.70698 0.61339,-0.78761 0.77754,-0.30527 1.04536,-1.27717 1.14182,-1.38949 0.5702,-1.31462 0.0288,-0.32685 0.0274,-0.2779 0.16127,-1.82289 0.70554,-1.83729 1.43413,-2.10511 1.43124,0.32109 -0.35277,0.74154 -0.15839,0.7545 0.14543,1.61987 -0.17566,1.53492 -0.61627,1.71058 0.19726,0.86969 1.77826,1.54356 0.18431,0.69403 -0.80058,2.56731 0.3067,0.9388 1.33477,0.68683 0.15839,0.30381 -0.2707,0.62203 0.37005,0.41901 2.50828,-1.60259 0.14255,0.0562 -0.51548,1.69762 0.11951,0.70267 1.63571,2.11662 0.45068,1.02953 0.50972,2.97911 0.80633,3.16343 -0.0662,1.06695 -0.40604,0.57884 -1.32182,-0.42044 -1.03816,0.0691 -1.04247,0.33837 -0.20446,0.0648 -0.74443,0.44493 -0.31678,0.39021 -0.9028,1.11015 -4.22462,1.21814 -0.75163,1.22103 -1.31461,0.55291 -1.79841,1.33333 -0.68107,0.50541 -0.43629,0.77177 -0.12814,2.70411 0.48811,0.53276 0.47805,-0.14255 0.71131,-1.06264 0.23181,-0.34701 0.5342,-0.35565 2.58747,-0.21887 1.44421,0.32542 1.82001,0.0821 0.33982,0.013 1.34197,0.45789 0.0432,0.013 1.16343,0.80634 0.0273,0.0604 0.2203,0.48812 -0.35565,0.37725 -1.31894,-0.92152 -0.43196,-0.30095 -0.41181,0.0648 -0.27789,1.54355 -2.21887,-1.01655 -0.65947,0.009 -0.50395,0.39886 -0.28655,0.22749 -0.53131,1.37942 0.43772,0.85817 0.73291,0.54859 0.40892,0.8913 0.63932,0.73722 0.0562,0.35133 -0.26782,0.15838 -1.2959,-1.22102 -0.9748,-0.0734 -0.89129,-0.82217 -0.41181,0.0302 -1.03528,0.60331 -0.35852,-0.14974 -0.64075,-2.2923 -0.49821,-0.14687 -1.31749,1.62419 -0.0245,0.0302 -1.21527,-0.0201 -0.70266,0.89993 -0.67963,0.22606 -0.11519,0.32685 0.86394,1.49461 0.22462,0.095 0.81066,0.32974 0.30669,0.43773 0.013,1.20374 1.32181,1.04247 0.28366,1.6458 0.91001,1.63714 0.023,0.35133 -0.34558,0.51837 -1.07127,-0.95177 -0.66955,-1.19078 -0.55723,-0.527 -0.2275,-0.7977 -1.19799,-0.76745 -0.73146,-1.57668 -0.24334,-0.14687 -0.55147,-0.32973 -0.97193,0 -0.6537,0.61339 -0.15119,2.31102 -0.45501,-0.0389 -0.95608,-1.80993 -0.94024,-0.56875 -1.52916,-0.0302 -0.29662,-0.30093 0.52123,-0.89129 0.19007,-0.32974 0.61339,-0.14974 1.73794,1.04536 0.83802,0.0475 0.56011,-0.42908 -0.2635,-0.2995 -3.61123,-1.55219 -0.81353,-1.21671 -0.72858,-0.39021 -0.51548,-0.51116 1.2311,-1.82577 -0.28366,-0.58171 -0.42189,-0.0821 -2.01584,1.35062 -0.0101,0.009 -1.14038,0.2563 -0.3355,0.0734 -0.18574,0.0432 -0.66235,0.14543 -2.39741,-0.004 -1.2527,0.40749 -2.51836,0.25629 -1.27285,1.11879 -1.18359,-0.0216 -0.99928,-0.88265 -0.25054,0.37293 0.7905,1.39381 0.89705,1.18214 2.61483,3.44277 1.72786,2.82361 1.51044,3.25846 1.56227,4.44493 0.46796,1.32757 0.16559,1.03816 0.32974,2.0792 -0.0101,3.2023 -0.007,2.64362 -0.003,1.38517 -0.49389,1.84306 -0.0403,0.0936 -0.24766,0.58315 -1.11015,2.61051 -1.03959,1.5306 -1.09144,2.20303 -0.33549,1.1231 0.17855,0.55724 2.03311,0.41613 1.16487,-0.15407 0.44492,-0.19438 4.15695,-1.80418 0.89417,-0.0648 0.85098,0.26206 1.17062,-0.58315 1.0252,0.31822 0.73578,-1.36357 0.53707,-0.2491 1.19079,0.19726 2.13535,0.87401 1.09575,-0.18431 0.87977,0.22319 0.74874,-0.68971 0.94888,-0.24334 0.5774,-0.42909 0.64362,-0.4766 1.87186,0.0475 1.34917,-1.01656 1.4802,-0.63355 0.84378,-0.84089 1.50755,-2.30093 0.5198,-0.46365 1.50756,-0.24334 0.70267,-0.40317 1.87904,0.18863 0.63931,-0.29661 0.64363,-0.71563 1.09431,-2.43484 0.17135,-0.38158 0.77178,-0.55147 1.03528,-0.74154 0.4982,-0.35709 0.10799,-0.0763 0.20446,-0.0216 1.13751,-0.10655 2.07055,0.3902 0.5342,0.24766 1.39525,0.64651 4.62635,4.00864 1.00791,0.527 1.7509,0.91289 0.86105,0.27502 0.2347,0.0763 1.54932,-0.14111 1.0324,-0.60043 0.69834,-0.96904 0.2635,-2.32254 -0.4838,-1.59395 -0.83081,-1.07704 -0.42333,-0.11519 -1.054,0.8193 -0.47803,-0.0734 -0.18863,-0.0259 0.48524,-1.6285 0.12815,-0.0302 1.43701,-0.35565 1.76817,-2.10511 0.20734,-1.1735 0.37582,-2.12672 0.43916,0.35997 0.0461,1.20519 -0.66379,3.1591 0.34414,1.00649 1.58531,2.55003 0.19727,0.94313 -0.13823,0.87545 -0.13104,0.83945 -0.7329,1.50468 -0.8956,1.12311 0.026,0.38589 1.06839,0.46364 0.0893,0.31246 -0.39309,0.19726 -0.4118,0.21022 -1.6386,0.35422 -0.31965,0.4118 0.22318,0.0994 1.41541,0.60907 2.00144,1.52916 2.2347,0.87545 0.30094,0.3715 -0.59468,0.42908 0.79194,0.4766 0.35565,0.68539 -1.06407,0.63931 -0.75882,0.085 -1.37221,-0.93449 -1.11015,-0.0677 -0.12959,-0.22318 -0.0749,-0.12815 -0.46221,-0.80634 -0.68826,0.009 -0.32397,0.37725 -0.31246,0.88697 -0.17855,0.50107 -0.023,0.0691 -0.12815,0.35997 -1.1807,-0.63066 -0.37581,-0.43629 0.24334,-0.51116 1.04824,-0.92152 -0.19439,-0.30382 -1.00216,-0.53564 -0.64939,0.1152 -0.24046,1.11447 -0.51116,0.10367 -0.21166,-1.1188 -0.66811,-0.7329 -0.74298,-0.23182 -0.85961,0.0907 -0.88697,0.69834 -0.26781,0.69403 0.1483,1.19078 0.32398,0.56731 1.35493,2.36574 -0.19871,0.6897 -0.4478,0.0302 -0.62347,-0.56155 -0.43485,-0.85817 -0.83801,-3.26998 -0.39885,-0.82362 -1.18358,-1.12311 -2.31822,-1.57667 -1.08423,-1.27286 -1.42837,-1.17927 -0.45788,-1.16918 -0.53419,-0.70842 -0.70266,0.33117 -0.66811,-0.13391 -0.2275,-0.29949 0.2275,-0.75883 -0.12671,-0.31245 -1.00792,-0.10799 -0.60763,0.25342 -0.15119,0.32973 2.36141,3.24118 4.00864,4.11519 0.51404,0.59179 1.88624,2.16847 1.00649,1.15335 1.34772,2.13823 2.29806,5.54643 0.59756,2.55436 0.0259,0.13391 1.1807,6.44205 0.013,0.0648 0.68539,3.74514 0.0792,1.58675 0.25485,5.16055 -0.25773,6.14687 -0.44493,2.60619 -0.17854,1.04967 -1.88625,8.13535 -2.84809,9.126 -0.14832,0.39884 -3.9496,10.58748 -1.9424,3.43268 -0.71274,0.68539 -1.3938,0.76745 -0.47229,0.63931 0.13535,0.48381 0.15839,0.10799 0.52412,0.34269 1.64578,-0.0432 0.67243,0.27502 1.2095,1.15191 4.27645,1.83586 0.8121,0.82649 0.91001,1.81713 0.19726,2.0072 0.50828,1.98848 0.15119,2.59323 0.18142,3.09 0.31966,1.74946 -0.2635,2.80777 -0.26062,2.33118 -1.09431,5.35781 -0.0461,1.9496 -0.42189,1.92513 0.10799,0.61771 1.15047,0.83945 0.40893,0.66523 0.28078,0.45788 0.31246,1.68034 0.20157,0.15119 2.13391,-1.21814 0.36574,-0.21022 1.018,-0.17135 1.06263,0.34269 0.48812,1.49173 0.12095,1.77538 1.20375,0.26493 0.22174,0.2707 -0.8121,2.21167 0.26494,0.36861 1.00792,0.21886 0.30093,0.59467 -0.383,0.25774 -1.54644,-0.96904 -0.16127,-0.68539 0.58027,-1.24261 -0.14254,-0.31391 -1.05112,-0.072 -0.20446,-0.30094 -0.43197,-1.88481 -0.0302,-1.55651 -0.22318,-0.2707 -1.28726,0.23182 -2.05328,1.13175 -1.17782,1.35925 -0.13103,0.60907 0.36574,1.96257 -0.0663,0.51403 -0.16127,1.27287 -0.84089,2.3614 -1.01513,6.02736 0,1.5594 -0.65658,3.09143 0.50396,1.45717 0.90712,1.32037 0.72571,1.45284 0.80777,1.62851 -0.30957,1.01656 0.7257,2.75162 -0.30669,3.74222 -0.56444,2.37872 0.0922,1.44849 -0.66954,3.94384 -0.0389,1.84305 -0.004,0.19293 -0.006,0.34274 -1.95824,7.75807 -3.5378,6.54142 -1.69186,3.12884 -0.64939,1.20086 -0.89129,0.98205 0.19582,1.43987 -0.18142,1.8934 0.26638,0.44204 0.43484,-0.10218 0.32974,0.33404 -0.009,1.45284 0.527,1.80848 -0.0331,1.06263 -1.7941,4.91291 -0.97624,1.99713 -0.22319,0.46364 -1.1879,1.67888 -0.78042,0.55439 -0.25486,0.0332 -0.92584,0.12098 -0.24478,0.44056 0.73001,1.75813 0.42189,1.77825 -0.21742,1.89488 -0.39021,1.30311 -2.28798,5.05829 -0.73145,1.30747 -0.61052,1.0885 -1.72498,1.6847 -0.47372,1.06263 -0.5342,3.22674 -1.75378,1.75813 -0.22462,0.72572 0.2275,0.8697 -0.20446,0.51399 -0.7329,0.72432 -0.27358,1.01073 -0.69115,0.86682 0.19006,0.30381 0.68683,0.095 0.49676,0.35571 0.20879,-1.00793 0.48812,-0.21026 1.70338,0.51407 1.42836,1.56512 0.0792,2.26349 0.30958,0.54864 0.39885,-0.10365 0.25774,-1.29302 1.41829,-0.13395 0.33261,-0.59177 0.0201,-1.27716 0.90281,-0.70272 1.46436,-0.49239 0.70554,-0.61772 1.1044,-1.81717 1.29302,-0.51399 1.34485,-0.20163 0.7905,0.15408 0.45932,-0.27934 0.41901,-0.87832 0.8956,-0.84375 1.01944,-0.56589 4.59036,-0.99495 1.22246,0.51834 0.57019,-0.11088 1.12743,-0.96473 2.35134,-0.44639 2.00143,-1.06263 0.53132,-0.28361 6.19871,-0.34988 1.84305,0.65509 0.36573,-0.095 -0.21454,-1.7955 0.36284,-1.26426 1.13032,-1.49604 2.03167,-1.19938 1.64579,-0.32689 -0.0792,-0.2059 -0.48523,-0.10653 -0.37869,-0.0821 0.66954,-0.75307 0.28654,-1.40249 0.25342,-0.20583 0.32973,-0.26068 0.78186,1.11741 0.60043,0.31383 0.77466,-0.0863 0.61627,-0.82222 0.0821,-1.63855 0.36573,-0.65952 0.75882,-0.17133 0.1843,0.54864 -0.80777,1.02806 -0.19727,0.7502 0.0461,1.38944 -0.86105,0.41181 -0.77466,0.0893 -0.0922,0.31391 0.26061,0.23901 2.02449,0.0391 0.4622,0.0103 1.18358,0.98493 0.65227,0.0993 0.58315,-0.42907 3.95681,0.19728 0.17134,-0.54429 -0.17711,-0.99495 -0.18142,-1.00358 0.3355,-0.72719 0.15838,-0.33979 0.0662,-0.14545 0.24766,-0.53994 0.62635,-0.89558 0.47804,0.0435 1.04536,-0.71275 0.37869,0.61764 -0.11519,0.35999 -1.02808,0.90855 -0.35997,0.31678 -0.11807,0.18143 -0.47228,0.71135 0.42188,4.11952 0.36573,0.43628 3.95104,0.66085 0.88698,0.61632 3.30309,1.20086 1.65155,0.082 0.53131,0.0243 1.95825,-0.16698 1.17062,-0.32114 2.19007,-1.45284 1.44709,-0.27498 2.02736,0.40311 1.39812,0.61772 1.41541,0.93737 2.15263,1.91648 1.25269,0.52417 1.11447,-0.14258 0.30958,-0.14973 1.47444,-0.707 1.24983,-0.14973 1.79697,-0.61344 1.4442,0.26496 1.54644,-0.23901 1.8632,-0.68687 1.78979,-0.2174 2.98775,0.55726 3.77826,1.55075 0.64219,0.26636 0.50828,-0.0346 3.8373,1.74942 10.80489,8.04611 0.32686,0.239 2.69402,2.63645 2.15982,1.60832 0.28942,-0.26635 -0.70554,-1.09293 -2.49532,-2.75301 0.74154,-0.0457 0.52844,-0.27933 1.28581,0.48952 0.84089,-0.12526 1.09432,-1.054 0.37869,0.082 0.33693,1.02378 0.0489,0.14973 0.10223,0.32113 0.43484,0.46799 0.74875,0.0258 0.69258,-0.32106 0.64939,0.0634 3.85169,3.35207 1.01512,-0.0258 1.40101,-1.04103 0.79193,-1.03668 0.036,-0.60481 -1.39093,-1.23109 -0.22174,-0.30381 0.15551,-0.25773 0.6825,0.0302 1.0612,-1.01942 1.1879,-0.63497 0.23038,-0.12386 1.86609,-0.64219 2.15263,-0.37289 1.72211,-0.84522 0.97911,0.54429 -0.27357,0.082 -1.66594,0.49247 -0.30959,0.54856 0.20735,0.6652 0.69546,0.31251 0.83802,-0.15843 0.6897,0.13682 2.26782,-1.33768 3.71922,-2.80343 0.0302,-1.34484 0.43484,-0.7718 0.63355,-0.21025 1.00504,0.36433 0.40317,-0.056 8.33405,-5.51191 2.08064,-1.8171 0.65658,-1.17926 -1.11734,0.17568 -0.3571,-0.33411 1.44133,-1.00357 0.44924,-0.84375 0.23038,-0.43342 1.3247,-0.67676 1.82001,-1.5896 1.11879,-0.63069 0.69834,-0.39456 1.13464,-1.05394 0.51115,0.0391 0.2203,0.30816 -3.03239,2.43917 -1.42837,0.68104 -0.83801,0.86247 0.19151,0.41469 6.78617,-4.16987 0.527,-0.28803 3.5738,-1.92798 2.03167,-0.81927 2.83225,-0.50972 3.054,-0.13248 2.41901,0.82215 1.33909,0.21453 0.52411,-0.34701 0.31391,-0.54856 0.0461,-0.46364 -0.41613,-0.92588 -0.65947,-1.46146 -0.15119,-0.57017 -0.39308,-1.49029 -0.0979,-3.25417 -0.42189,-0.969 -1.4586,-1.22969 -0.3787,-0.79767 0.25055,-1.04111 1.13174,-2.54282 -0.0273,-0.56154 -0.88985,-1.40529 -0.48812,-2.36147 -0.0994,-0.47661 -0.68826,-1.48734 0.36861,-1.47017 -0.45789,-2.95316 0.38589,-1.15338 0.50396,-0.7718 0.23182,-1.49892 -0.17279,-2.01149 -0.36573,-1.22099 -0.7905,-1.44421 -1.71778,-1.56947 -0.40892,-0.6854 0.14399,-0.50544 0.43916,-0.0605 0.35997,-0.30381 1.05111,-0.1641 0.27359,-0.65089 -1.17063,-2.20297 -0.40173,-3.20234 -0.96329,-2.14251 0.013,-0.056 0.45212,-2.16419 -0.43772,-1.25268 -2.68394,-1.90786 -0.32398,-0.76169 0.14255,-1.21811 0.023,-0.21026 -0.24189,-0.52269 -2.04032,-0.68967 -0.52412,-0.17563 -0.10079,-0.5918 -0.72427,-3.36069 -0.0187,-0.0907 -0.16559,-0.79194 -0.0461,-0.22318 0.28654,-0.0172 1.9064,-0.10223 0.34989,-0.48093 -0.1483,-0.24046 -1.00936,-0.33405 0.26062,-0.89993 0.9892,-1.40101 0.62923,-0.38588 -0.23759,-0.5918 0.42189,-1.79122 -0.0749,-0.51835 -0.0633,-0.41613 0.25774,-0.95608 0.30958,0.30381 0.58315,0.0432 0.79914,-1.77826 0.85385,-0.72137 0.42189,-1.76098 1.51331,-1.81714 0.42909,-1.01655 0.57019,-2.86249 0.15839,-2.91577 0.81065,-2.47661 0.58028,-1.77537 0.5774,-2.82794 0.98487,-1.47156 0.29374,-1.64579 0.94025,-1.04103 1.18934,-0.17136 1.82001,-1.30309 2.01872,-2.13822 1.88626,-2.00289 0.38157,-0.29517 2.52267,-1.94673 3.054,-4.05472 0.49388,-1.76097 0.91001,-1.00792 1.58243,-3.0468 -0.16846,-0.63067 -0.61916,-0.81498 1.13463,-2.44204 0.73434,-1.58243 0.68251,-3.07704 1.15766,-2.39596 -0.39596,-1.3679 -0.50396,-1.73505 -0.007,-0.27502 -0.0159,-0.9604 0.79769,-1.28151 1.7869,-0.76313 3.1591,-0.86105 0.31966,-0.38157 0.92008,-1.0972 0.74443,-0.28366 0.76601,0.17136 1.40389,1.38516 0.52124,0.0806 5.2023,-0.50108 1.19367,-0.982 -0.006,-0.95465 -0.5342,-1.14039 0.0562,-0.28797 1.5162,-2.19439 0.59611,-0.48812 0.86825,-0.0259 0.78042,-0.0216 0.98056,0.30814 2.64075,2.13967 1.89201,0.75738 2.19294,-0.20879 3.52773,-1.1231 0.37868,-0.76314 -0.98488,-2.10944 0.68826,-1.4874 0.13968,-0.7833 0.009,-0.33116 0.0172,-0.65947 -0.16558,-0.7761 -0.18431,-0.86969 0.11232,-0.57451 3.94672,-6.58748 0.40604,-1.37221 0.6134,-2.07487 0.85961,-4.70554 0.0921,-0.37438 1.10439,-4.52124 0.0633,-0.26206 -0.13823,-0.41036 -0.10224,-0.30526 -0.1195,-0.36429 -0.83369,-0.17134 -0.78474,0.2491 -1.86897,1.3578 -0.52844,-0.0259 -0.58027,-0.0245 -1.69475,0.60763 -1.31893,-0.1843 -0.54428,0.20158 -0.0317,0.89129 -0.0302,0.7761 -0.4622,0.53996 -0.32541,0.38157 -0.12959,0.0562 -0.63643,0.27358 -0.55724,0.24047 -0.33549,0.14542 -1.06119,0.12095 -2.072,0.77178 -0.84665,-0.56155 -0.50108,-0.33118 -0.3067,0.12095 -0.48812,0.94313 -0.11231,0.21742 -0.23758,-0.0201 -0.88697,-0.0821 -0.12094,-0.013 -0.96041,-0.83225 -1.01512,-0.87833 -0.15695,-0.32685 -1.63427,-3.40677 -2.25197,-3.21815 -0.0691,-0.34269 -0.0648,-0.33981 -0.98344,-4.88985 -0.38301,-0.82793 -0.66523,-0.92585 -0.50396,-0.4838 -1.84305,-1.77106 -0.9964,-1.36645 -2.90425,-5.05831 -0.75594,-0.84954 -2.40605,-2.70842 -2.20302,-2.88408 -2.32829,-3.04824 -1.80706,-3.8013 -3.27718,-2.02736 -0.76458,0.0259 -1.34197,0.0417 -0.12239,-0.38157 0.31677,-0.61627 1.61556,-1.32901 0.50395,-2.13968 0.83802,-1.14902 0.84809,-1.16487 -0.14255,-0.80634 -0.60331,0.29518 -1.08855,0.53276 -0.527,-0.21887 -0.13535,-0.63067 0.46508,-2.26206 0.29374,-1.41972 0.53708,-1.22535 0.52411,-1.20086 0.50108,-2.57163 0.30958,-0.75882 1.12455,-1.11447 0.28077,-0.63067 0.76458,-1.70915 0.45933,-1.02519 1.473,-2.55004 0.5846,-2.32685 1.7077,-2.7401 -0.16847,-0.66379 -1.70194,-0.51116 -0.51404,-0.15694 -0.43772,-0.43773 -0.0605,-0.49244 0.0734,-4.39021 1.15623,-8.02016 0.4694,-0.97625 0.69834,-0.6393 1.2887,-0.70267 0.25486,-0.13679 3.23974,-1.74226 1.17206,-1.18934 1.17351,-2.22174 2.42621,-1.08855 0.32397,-0.14543 0.563,-0.55724 0.57739,-1.19078 0.74874,-1.5306 2.35421,-2.27646 0.90281,-0.35997 2.5846,-0.0302 0.82217,-0.21455 0.58603,-0.80921 0.96905,-2.94888 0.23757,-0.35134 1.25702,-1.84305 0.74154,-0.46364 0.51405,-0.1843 1.90928,-0.67819 0.45501,-0.69403 0.29085,-1.2167 -0.18862,-1.01656 -1.23255,-2.20302 -0.36716,-0.65515 -0.2995,-1.0252 0.29086,-0.74585 2.40316,-1.50037 0.38877,-0.53131 0.69259,-2.48525 0.0792,-0.28797 1.98848,-3.06408 1.09144,-1.2527 2.41612,-4.3974 1.93664,-3.51476 0.013,-0.48813 0.013,-0.50108 -0.2347,-0.5198 -1.24262,-1.32325 -0.13247,-0.63067 0.56444,-2.18142 -0.13248,-0.66523 -1.60546,-2.33118 -2.84234,-2.73577 -1.27285,-0.96761 -3.0324,-2.22894 -0.7329,-0.17134 -1.10728,0.1915 -5.43124,2.55579 -2.05039,0.16703 -1.44421,-0.28222 -0.79194,-0.52844 -0.69834,-0.81497 -0.53708,-1.00216 -0.0691,-0.73722 0.42477,-2.17711 1.2095,-3.20662 -0.21742,-1.72355 -1.27574,-1.13894 -3.37941,-0.64795 -2.64794,-0.50972 -1.38518,-0.50252 -1.36501,-0.77898 -0.75161,-0.90137 -0.61628,-0.72858 -0.96616,-1.9712 -0.46796,-3.93953 0.13535,-2.37436 0.74874,-2.06624 0.48811,-1.35061 -0.28077,-0.69402 -2.64075,-2.63067 -1.34629,-1.1404 -3.10583,-2.6321 -2.16271,-3.5018 -0.27646,-0.34701 -0.14543,-0.41613 -0.49099,-1.41829 -1.3751,-3.96544 0.27646,-0.71994 2.21887,-1.74082 0.86105,-0.99929 0.23757,-0.86105 -0.0403,-3.53635 0.78473,-2.44349 -0.13823,-0.62923 -0.42764,-0.45068 -0.31101,-0.32542 -1.69763,-0.97336 -2.07344,-0.72426 -0.72858,-0.33837 -1.19366,-1.02376 -1.29302,0.0633 -1.47732,-0.77177 -0.73866,-0.77178 -0.51692,-1.17782 -1.02232,-4.37725 -0.93736,-1.36646 -0.70123,0.15407 -0.33981,0.0777 -0.92296,-0.20302 -0.81786,-0.20446 -0.89705,-0.69115 -0.56732,-0.57883 -1.00504,-2.56588 -0.79913,-1.14039 -0.29949,-0.42908 -0.95321,-0.80202 -1.16055,-0.56155 -1.28581,-0.62059 -1.3679,-1.34198 -1.42836,-2.5414 -0.37869,-1.01655 -2.09647,-5.61123 0.0749,-0.60475 0.38589,-0.42333 0.69979,-0.37293 1.66162,-0.51116 1.62131,0.12959 2.62203,-0.30814 5.08424,1.15191 0.14542,0.0562 2.14543,0.78474 1.27718,0.18431 0.2275,-0.0562 0.53708,-0.12382 1.82001,0.17566 5.29878,0.51404 1.56659,0.14975 5.80562,-2.27646 1.40101,-0.5486 0.10943,-0.0417 0.1411,0.009 7.95969,0.5486 0.92729,0.0633 0.62923,0.2275 0.83801,0.30382 0.55292,0.0864 0.97336,0.14975 0.38589,0.0605 1.29157,-0.30382 3.19223,-0.75594 0.54428,0.0518 0.93592,0.0907 0.58027,0.21885 0.13535,0.0504 1.86322,0.70267 0.84377,0.0691 1.05543,-0.0504 1.78402,-0.9316 3.35349,-1.21671 0.48092,-0.26926 0.71563,-1.23542 0.58603,-1.79122 0.0101,-0.10367 0.32686,-3.37653 0.383,-0.71706 0.42765,-0.80489 0.0331,-0.18431 0.0792,-0.42045 -0.18718,-1.49604 0.13823,-0.78474 1.46004,-3.28725 0.16559,-0.96041 0.006,-1.30741 -1.01512,-2.88409 0.26062,-1.11015 1.00504,-1.00792 1.21382,-1.2167 1.57236,-0.21455 0.67243,-0.34269 0.25486,-0.12959 0.4478,-0.90425 1.26998,-0.69402 0.16414,-1.73938 1.2959,-0.87545 1.71202,-2.55004 0.3355,-4.04751 -0.5702,-3.14904 0.22751,-1.1447 1.21093,-1.38517 0.46077,-0.53132 0.34989,-1.53491 -0.52843,-2.19871 0.41324,-1.75234 0.12815,-0.35565 1.18359,-3.27142 0.095,-1.09719 0.51116,-0.97336 0.24046,-0.65515 0.53132,-0.37725 -0.91289,-1.01656 -0.17566,-0.19151 -0.24046,-0.38156 -0.0259,-0.30958 -0.12239,-0.60331 -0.036,-0.17711 -0.2203,-0.22174 -0.003,-0.004 -0.20158,-0.20591 0.0201,-0.095 0.0849,-0.42332 -0.7977,-1.58676 -0.65946,-0.53132 -0.11231,-0.0893 -0.26351,-0.31245 -0.0533,-0.72571 0.10655,-0.39452 0.10512,-0.39741 -0.40605,-0.026 -0.81354,-0.32253 -0.0691,-0.13247 -0.1987,-0.38158 -0.7545,-0.55723 -0.24478,-0.23902 -0.32973,-0.53276 -0.28222,-1.40532 -0.63067,-0.85242 -0.54715,-1.62995 -0.3427,-0.20878 -0.70842,-0.42908 -0.34413,-1.04536 -0.46077,-0.17279 -0.491,0.12096 -1.10151,-0.22751 -0.10511,-0.0216 -0.0202,-0.009 -0.73866,-0.36861 -2.00864,-0.47084 -0.89705,0.57739 -1.19366,-1.2599 -1.04536,-1.87329 -0.25054,-1.33189 0.35277,-1.28294 -0.095,-0.77034 -0.59035,-0.83225 -0.28366,-2.52844 -0.24334,-1.08855 0.33981,-1.70195 0.64939,-1.99711 0.55292,-1.56948 1.05543,-1.47444 1.78114,-0.96904 2.40029,-0.21023 0.93304,-0.83945 0.66523,-1.4658 0.455,-0.18863 5.69475,-0.33549 2.4334,-0.49244 2.09648,-0.97193 0.0187,-0.12527 0.18575,-1.28581 -0.29662,-1.97553 0.28366,-1.27717 1.4874,-1.38085 1.64867,-1.22103 0.33262,-0.24478 0.97336,-0.83657 1.78257,-0.86105 1.05976,-0.24046 0.62635,-0.47516 0.39165,-3.85314 0.20158,-0.50107 0.96904,-0.94313 0.0533,-0.70842 -0.70842,-0.47516 -1.19367,-0.3211 -1.09143,-0.99496 -0.53852,-0.23182 -0.40893,-0.69403 -1.07703,-1.80849 -1.17495,-2.28942 -0.32541,-0.63354 0.11807,-1.22247 -0.43196,-1.20374 -0.80058,-1.98992 0.0388,-1.19942 1.13751,-2.64507 1.65587,-1.84306 1.22534,-3.02663 0.7617,-1.08424 0.56156,-0.26062 0.52411,-1.71058 0.12527,-1.42261 -0.54715,-1.14038 -0.27358,-0.87545 -1.14471,-1.59396 -1.55652,-1.16631 -0.82073,0.17135 -1.37797,-0.95033 1.8229,-3.68178 0.13823,-0.24478 0.81785,-1.43701 1.1879,-2.08207 0.89993,-2.35421 0.42477,-1.4226 0.036,-1.27286 -0.78762,-2.7689 -0.33981,-2.10943 -0.57739,-4.30382 -0.16703,-1.24262 -0.61771,-1.96688 -0.58027,-0.40749 -0.0518,-0.70699 -0.59035,-1.21814 -0.11951,-0.24766 -0.24047,-1.02087 0.44493,-2.30094 0.11231,-2.79482 0.77898,-3.19366 -0.55724,-2.5342 0.45789,-1.70051 -0.27646,-1.08998 0.20734,-0.35997 1.70483,-0.28654 0.56011,-0.39885 -0.006,-0.11951 -0.0864,-1.23542 -0.65947,-3.2527 -0.44205,-0.59179 -0.29661,-0.0936 -1.89633,-0.59611 -0.2995,-0.59611 -0.874,-0.71995 -0.70554,-1.00792 -0.12816,-3.88336 -1.53347,-4.27358 -0.51405,-0.62059 -1.38229,-0.85386 -0.67242,-1.29013 -1.16054,-1.56516 -1.93233,-2.33981 -1.30886,-2.04464 -1.30165,-1.24262 -0.21166,-0.4838 -0.023,-0.42044 -0.003,-0.0302 -0.026,-0.39452 -0.0864,-0.41182 -0.12815,-0.60762 1.19366,-0.55868 0.62635,-0.20014 1.55939,0.21022 0.10512,0.0331 0.56731,0.1771 0.0403,0.0115 2.48236,0.79338 3.56084,-0.34701 2.59754,-0.61772 1.3103,-0.70266 0.62923,-0.36861 0.75162,-1.11879 0.29949,-0.44924 1.83442,-1.75811 0.4406,-1.07559 1.00649,-2.44781 1.91504,-2.6969 -0.16127,-1.0324 -0.84664,-1.19222 -0.6278,-0.48812 -0.0849,-0.69834 0.39165,-0.75019 1.95248,-1.38804 1.06839,-0.76458 2.47229,-2.30094 2.12383,-2.66666 0.982,-2.49389 0.59035,-0.82793 0.81209,-1.39237 1.43989,-1.87761 2.73002,-2.78186 1.38229,-0.59179 1.30166,-0.24046 0.5342,0.0518 0.0302,0.013 0.76171,0.33405 0.58747,0.25774 1.24838,0.31246 0.93016,0.24046 1.61988,-0.0691 0.56011,0.0346 0.95609,-0.78475 0.47803,-0.56155 1.80706,-1.58963 0.82074,-0.30958 0.81785,-0.1843 0.3427,-0.0763 2.34844,-0.85242 4.01155,-4.13679 1.5335,-1.08855 0.3427,-0.24478 1.9582,-0.89129 1.4485,-1.29878 0.7416,-2.31533 0.6364,-0.57883 0.7257,-1.39237 1.7408,-1.05832 1.414,-1.33765 0.3139,-0.50108 -0.1814,-0.78474 -0.036,-0.0648 -1.0785,-1.89921 0.2606,-1.45284 0.7646,-0.94744 0.046,-0.0547 1.1116,-0.15982 0.9791,0.30093 0.049,0.0648 0.9834,1.29446 0.455,0.0461 0.059,-0.004 1.3377,-0.11087 0.1195,-0.0734 0.1642,-0.10223 0.014,-0.009 0.1281,-0.0821 0.099,-0.0605 0.2923,-0.18431 0.066,-0.0936 0.5342,-0.75882 0.013,-0.0518 0.2966,-1.12598 0.1858,-0.74587 0.4507,-0.85816 0.7818,-0.57884 0.8078,-1.07559 0.4219,-1.40245 0.017,-0.0547 -0.04,-0.46795 -0.1023,-1.19079 0.3499,-0.81066 0,-0.004 -0.01,-0.0216 1.9266,-4.19151 0.1152,-0.68251 1.0554,-1.06695 0.6365,-1.15335 1.5291,-1.15191 0.3168,-0.46363 0.1843,-1.80418 2.7401,-2.3067 0.9129,-1.38805 0.8682,-2.10079 0.4478,-0.15407 0.1411,-0.34269 0.3773,-0.89993 0.6321,-0.78905 0.7847,-0.61771 1.5767,-0.73723 -0.1612,-0.83945 -1.6329,-2.12671 -2.4435,-0.94313 -0.5529,-0.55291 -1.4543,-2.12527 -1.8661,-2.78618 -1.9913,-1.76674 -0.6667,-0.72426 -1.3549,-0.68106 -0.1555,-0.0432 -2.5745,-0.67675 -0.8769,-0.26638 -1.3564,-0.71562 -0.959,-0.8265 -0.8005,-0.26638 -0.013,-0.004 -0.7891,-0.18863 -2.347,0.39885 -1.0886,-0.11662 -1.6817,-0.599 -2.1368,0.009 -0.4176,-0.095 -0.8582,-0.19726 -1.4269,-0.67243 -0.6537,0.013 -1.784,2.72138 -0.6422,0.36861 -4.57599,1.41973 -0.74587,-1.2311 -1.74082,-1.65443 -1.10151,-0.5054 -2.17566,-1.68035 -1.10872,-0.11087 0.5702,-1.26998 0.0172,-0.0375 0.55724,-1.24406 -0.0461,-0.56156 -0.78762,-3.09431 -0.63067,-0.65946 -0.23758,-0.95177 -0.22318,-0.15839 -0.95032,-0.66523 0.0201,-0.67242 1.49316,-1.37221 0.69547,-1.32038 0.45212,-2.69114 0.29662,-1.41973 0.56011,-0.93017 0.32398,-1.80849 0.66954,-0.93016 0.35277,-2.26782 -0.12527,-0.88265 0.80778,-2.94888 -0.10223,-0.31246 0.34557,-0.60475 0.35277,-0.61339 -0.56299,-0.72859 -1.54356,-0.78041 -3.07271,-0.70699 -0.20446,-1.05399 0.77753,-0.86537 0.50828,-1.25558 0.0101,-1.40245 0.8697,-1.61123 0.29661,-1.17063 -1.10007,-1.98848 -1.24982,-1.95104 -0.55724,-1.1951 -0.59755,-0.44637 -0.99928,-0.14543 -0.23758,2.26638 -0.88265,0.97337 -2.78906,0.59611 -0.33405,0.0388 -3.36645,0.40316 -1.84594,0.39885 -1.77393,0.2563 -1.82289,-0.13247 -2.08064,-0.26494 -1.68467,-0.31389 -1.31029,0.0346 -1.38085,-1.38084 -1.2239,-3.60404 -1.57812,-1.86897 -1.07271,-0.46796 -1.05831,-0.0763 -1.70483,0.21742 -0.43197,0.83225 -0.2131,2.08352 -0.37725,2.3398 -0.57595,0.62636 -1.42405,0.62923 -2.15983,0.12527 -0.0922,0.004 -0.88409,-0.29661 -0.37005,0.32253 -2.14975,0.62923 -1.12023,0.24046 -1.39812,-0.45356 -1.68899,0.0201 -0.82073,0.009 -1.17351,-0.35565 -1.2167,-0.56588 -0.36573,-0.35565 -0.19871,-0.19295 -0.58891,-1.53779 -0.2707,-0.11231 -1.33621,-1.56372 -0.84666,-0.0216 -1.2239,0.49244 -0.0605,0.0691 -1.38373,1.5594 -1.52628,1.31605 -1.41397,0.11231 -1.1447,-0.4982 -2.25198,0.16703 -1.08136,0.31821 -0.98632,-0.11663 -0.63211,-0.47517 -1.65299,-2.81209 -2.19582,-1.49172 -2.06047,-0.71562 -1.00217,0.21454 -2.58891,-0.92297 -1.84593,0.37725 -0.036,0.0173 -0.67243,0.34413 -0.0432,0.0201 -0.50397,0.25774 -0.5054,0.48092 -0.0821,0.0806 -0.81066,1.49172 -0.0273,0 -0.0417,0.0778 -0.0763,0.37725 -0.13822,0.7329 -0.0864,0.35997 0.60331,0.99353 0.0101,0.0172 -0.0389,0.10799 -0.21454,0.57451 -0.10511,0.73722 -0.0274,0.18431 -0.003,0.013 0.30382,1.581 0.41468,0.9388 0.42621,1.24263 0.0101,0.45499 0.006,0.27071 -0.0821,0.16126 -0.0591,0.12095 -1.9424,3.94817 -1.21238,0.74154 -0.43629,0.33693 -1.62131,1.17495 -3.2383,1.08999 -1.75377,0.79626 -1.80418,1.50467 -1.63139,0.12527 -1.65587,0.44061 -2.37437,0.74586 -1.71058,-0.11951 -2.27502,-0.66954 -1.20086,0.004 -2.02449,1.40677 -0.98919,1.86897 -0.33261,0.874 -1.02521,0.7977 -1.52051,0.31246 -0.71562,0.14974 -0.0417,-1.84305 0.31533,-1.03671 -0.64219,-0.61771 -0.2347,-0.22751 -1.35493,-1.33189 -0.50684,-1.04248 -0.62059,-0.83945 -0.32686,-0.96041 -1.08135,-0.004 -1.30597,0.0806 -2.56156,-1.5378 -1.52628,1.04104 0.59611,1.39381 -0.55003,0.86536 -0.46221,0.2995 -1.42404,0.78906 -2.19295,0.7113 -1.1663,0.85241 -1.87617,0.3859 -1.38517,-0.0936 -1.57668,-0.44204 -1.74081,-0.85241 -0.29662,-0.13392 0.0202,-0.42332 0.75162,-2.32253 1.42404,-1.78402 1.83009,-1.61555 -0.69546,-0.0821 -1.21959,0.39454 -2.38444,-0.55292 -2.30094,0.71994 -1.20374,-0.0633 -1.11735,-0.7041 -1.57956,-1.38805 -2.50972,-1.85169 -0.59611,-0.29662 -0.93305,0.2059 -0.99207,0.63931 -1.4946,0.93881 -1.96545,-0.0346 -1.22966,-0.22318 -0.38157,-0.0677 -1.22678,0.22174 -0.0821,0.0518 -2.50971,1.56516 -1.93953,0.63786 -2.74874,0.35134 -1.37221,0.12959 -0.30669,1.52627 -0.18719,0.74443 -1.38517,0.86681 -0.94312,0.0375 -2.22895,0.61771 -0.86681,-0.78042 -0.44636,-1.07991 1.21094,-6.89993 0.0389,-1.23974 -0.39165,-1.07128 -0.57451,0.11951 -1.17927,-0.37725 -0.49244,0.11519 -1.09432,0.26206 -0.27645,0.63931 0.10511,2.22895 -0.0994,2.01872 -0.38876,1.01943 -1.08423,1.19655 -0.78186,0.45356 -2.58747,0.73866 -2.40029,-0.013 -0.56156,0.4838 -1.18071,2.16415 -0.91576,0.67243 -1.31317,2.56444 -0.91866,0.53131 -1.35204,-0.15839 -0.41613,0.47517 -1.90929,1.27717 -0.62203,0.18719 -1.5306,0.43484 -0.63643,0.88697 0,0.55292 0,0.12959 -0.10223,0.0172 -1.62563,0.2779 -1.34485,0 -0.5342,0 -0.90281,-0.46221 -0.65082,-0.32685 -0.003,-0.009 -0.0159,-0.009 -0.65659,-0.33406 -1.34773,-0.2059 -0.28078,-0.0418 -0.19727,-0.0302 -2.33117,-0.89274 -0.1627,-0.40604 -0.13391,-1.60979 -0.37725,-3.61987 -0.91577,-3.2023 -0.3139,-0.4838 -0.15406,-0.24046 -0.0994,-0.15407 -0.0562,-0.0864 -0.48524,-0.22606 -2.64363,-0.0994 -0.0432,0 -0.87689,-1.51764 -0.65658,-1.19222 -0.33262,-0.83946 -0.18718,-0.47516 0.12094,-0.24046 0.3139,-0.61339 0.11519,-0.22606 -0.25054,-0.76746 0.84089,-0.81066 2.33694,-4.01583 0.67386,-0.48524 0.56588,-0.85241 0.0504,-0.11519 0.43771,-1.05544 0.73579,-0.96473 0.39597,-0.51835 0.48812,-0.63355 3.05975,-1.65011 2.13679,-1.95968 1.60115,-0.83514 1.85745,-0.96472 0.48093,-2.64507 -0.23038,-1.88193 -0.18863,-1.52483 -0.036,-0.0518 -1.60547,-2.2851 -1.96833,-0.97768 -1.46724,-0.22175 -2.31821,0.44925 -2.84522,1.509 -0.98344,-0.0806 -0.0331,-0.62203 -0.31966,-2.25918 -0.52699,-2.63644 -0.39597,-3.15478 -0.0821,-1.91505 -0.0302,-0.7041 -0.0187,-0.47085 -0.0504,-0.0432 -0.40172,-0.35133 -0.059,-0.004 -0.92729,-0.0677 z m -57.22247,221.5234 -1.23686,0.19727 -1.68466,2.05328 -0.26782,1.1447 0.23759,0.55292 0.85384,-0.0389 0.38301,-0.19295 0.69259,-1.97552 0.47803,-0.44637 1.12455,-0.36861 -0.58027,-0.92584 z m 0.11519,2.46941 -1.31318,1.64578 -1.43988,0.41901 -0.89416,0.64507 -0.57019,1.50757 0.15407,0.30812 0.46939,0.0864 1.10727,0.0893 0.55724,-0.26927 1.14759,-2.10079 1.21382,-1.50467 -0.43197,-0.8265 z m -38.18862,273.76243 -0.43484,0.7761 -0.0403,0.95896 0.007,3.18646 0.2635,0.26495 0.63931,-1.32038 0.52843,-3.00936 -0.32109,-0.61627 -0.64219,-0.24046 z m 0.43917,5.95824 -0.50828,0.21023 -0.51116,0.67242 -0.88697,2.33262 0.13247,0.37581 2.49244,-0.17135 0.96184,-1.19942 -0.0417,-0.60043 -1.63858,-1.61988 z m -4.20447,2.66523 -0.73866,0.36861 -1.6357,1.53492 -1.38373,3.14183 0.27933,0.0518 0.94025,-1.0252 1.08135,-0.46221 0.45069,-0.49244 1.19366,-2.38733 -0.18719,-0.73001 z m 33.54212,52.31246 -0.33982,0.12671 -0.0591,0.67819 0.62924,1.12743 0.49099,0.10655 0.88841,2.49099 0.35278,0.65084 0.27646,-0.0159 0.12526,-0.72138 -1.85889,-4.15695 -0.5054,-0.28654 z m -10.32254,5.76818 -0.38733,0.94744 1.19079,1.26566 0.28365,-0.94312 -0.20734,-0.55004 -0.87977,-0.71994 z m 12.72283,8.31101 0.023,0.35277 1.23685,0.90858 0.72139,-0.0476 0.18574,-0.36861 -0.15839,-0.30813 -2.00864,-0.53708 z m 106.88985,218.36574 -2.67819,1.32898 -0.26638,0.68975 0.0461,0.84522 1.2167,-0.1066 0.92585,-0.40894 1.05543,-1.83435 -0.29949,-0.51406 z m -13.94096,2.60187 -1.00936,0.16698 -0.45213,0.42051 -0.0388,0.49814 0.28941,0.37149 2.00288,0.58749 0.21743,0.35136 0.0777,0.1296 -0.73145,1.27281 3.37365,1.6847 3.60691,0.77895 0.80057,-0.19293 0.84378,-0.71997 0.30382,-0.6551 -0.32254,-0.33838 -1.95248,-0.30956 -0.91288,-1.14763 -1.18647,-0.63932 -1.02233,-1.28579 -0.71849,-0.13248 -1.21094,0.21314 -1.23687,-0.8812 -0.72137,-0.17281 z m 13.57092,1.21384 -0.43917,0.0243 -0.73435,0.82363 -0.2995,-0.51407 -2.00864,1.71493 -0.33549,0.72859 0.11808,0.27786 0.94312,-0.12813 2.34989,-1.69767 0.86825,-0.9042 -0.4622,-0.32541 z"
         id="path4319" />
    </clipPath>
  </defs>
  <sodipodi:namedview
     pagecolor="#ffffff"
     bordercolor="#666666"
     borderopacity="1"
     objecttolerance="10"
     gridtolerance="10"
     guidetolerance="10"
     inkscape:pageopacity="0"
     inkscape:pageshadow="2"
     inkscape:window-width="1600"
     inkscape:window-height="837"
     id="namedview116"
     showgrid="false"
     fit-margin-top="0"
     fit-margin-left="0"
     fit-margin-right="0"
     fit-margin-bottom="0"
     inkscape:zoom="5.5235553"
     inkscape:cx="60.073276"
     inkscape:cy="232.05997"
     inkscape:window-x="-8"
     inkscape:window-y="-8"
     inkscape:window-maximized="1"
     inkscape:current-layer="svg2" />
  <path
     style="fill:#ff0000"
     d="M 153.88867 0 L 153.42383 0.37695312 L 153.31836 0.46289062 L 153.06641 0.75 L 152.51953 1.375 L 152.16211 1.5 L 151.16602 1.8417969 L 150.75586 1.984375 L 150.58203 1.9941406 L 149.84375 2.0371094 L 148.80078 2.0957031 L 148.69531 2.2089844 L 148 2.9453125 L 148 781.28125 L 148.16406 781.22461 L 149.60742 781.48828 L 151.1543 781.25 L 153.01758 780.5625 L 154.80859 780.3457 L 157.79492 780.90234 L 161.57422 782.45312 L 162.2168 782.7207 L 162.72461 782.68555 L 166.56055 784.43555 L 177.36719 792.48047 L 177.69336 792.7207 L 180.38672 795.35547 L 182.54688 796.96484 L 182.83594 796.69727 L 182.13086 795.60547 L 179.63477 792.85156 L 180.37695 792.80664 L 180.90625 792.52734 L 182.19141 793.01758 L 183.0332 792.89062 L 184.12695 791.83789 L 184.50586 791.91992 L 184.8418 792.94336 L 184.89062 793.09375 L 184.99414 793.41406 L 185.42773 793.88281 L 186.17773 793.9082 L 186.86914 793.58594 L 187.51953 793.65039 L 191.37109 797.00195 L 192.38477 796.97656 L 193.78711 795.93555 L 194.57812 794.89844 L 194.61523 794.29492 L 193.22461 793.0625 L 193.00195 792.75977 L 193.1582 792.50195 L 193.83984 792.53125 L 194.90039 791.51172 L 196.08984 790.87695 L 196.32031 790.75391 L 198.18555 790.11133 L 200.33789 789.73828 L 202.06055 788.89258 L 203.03906 789.4375 L 202.76562 789.51953 L 201.09961 790.01172 L 200.79102 790.56055 L 200.99805 791.22461 L 201.69336 791.53711 L 202.53125 791.37891 L 203.2207 791.51562 L 205.48828 790.17969 L 209.20703 787.375 L 209.23828 786.03125 L 209.67383 785.25781 L 210.30664 785.04883 L 211.31055 785.41211 L 211.71484 785.35742 L 220.04883 779.8457 L 222.12891 778.02734 L 222.78516 776.84766 L 221.66797 777.02344 L 221.31055 776.68945 L 222.75195 775.68555 L 223.20117 774.8418 L 223.43164 774.41016 L 224.75781 773.73242 L 226.57812 772.14258 L 227.69531 771.51172 L 228.39453 771.11719 L 229.5293 770.06445 L 230.04102 770.10352 L 230.25977 770.41016 L 227.22852 772.84961 L 225.79883 773.53125 L 224.96094 774.39453 L 225.15234 774.80859 L 231.93945 770.63867 L 232.4668 770.34961 L 236.04102 768.42188 L 238.07227 767.60352 L 240.9043 767.09375 L 243.95898 766.96094 L 246.37695 767.7832 L 247.7168 767.99805 L 248.24023 767.65039 L 248.55469 767.10156 L 248.59961 766.63867 L 248.18359 765.71289 L 247.52539 764.25195 L 247.37305 763.68164 L 246.98047 762.19141 L 246.88281 758.9375 L 246.46094 757.9668 L 245.00195 756.73828 L 244.62305 755.93945 L 244.87305 754.89844 L 246.00586 752.35547 L 245.97852 751.79492 L 245.08789 750.38867 L 244.59961 748.02734 L 244.5 747.55078 L 243.8125 746.06445 L 244.18164 744.59375 L 243.72266 741.64062 L 244.10938 740.48633 L 244.61328 739.71484 L 244.8457 738.2168 L 244.67188 736.20508 L 244.30664 734.98438 L 243.51562 733.53906 L 241.79883 731.9707 L 241.38867 731.28516 L 241.5332 730.7793 L 241.97266 730.71875 L 242.33203 730.41602 L 243.38281 730.25195 L 243.65625 729.59961 L 242.48633 727.39648 L 242.08398 724.19531 L 241.12109 722.05273 L 241.13477 721.99609 L 241.58594 719.83203 L 241.14844 718.58008 L 238.46484 716.67188 L 238.14062 715.91016 L 238.2832 714.69141 L 238.30664 714.48242 L 238.06445 713.95898 L 236.02344 713.26953 L 235.5 713.09375 L 235.39844 712.50195 L 234.67578 709.14062 L 234.65625 709.05078 L 234.49023 708.25781 L 234.44531 708.03516 L 234.73047 708.01758 L 236.63672 707.91602 L 236.98828 707.43555 L 236.83984 707.19531 L 235.83008 706.86133 L 236.08984 705.96094 L 237.08008 704.55859 L 237.70898 704.17383 L 237.4707 703.58203 L 237.89258 701.79102 L 237.81836 701.27148 L 237.75586 700.85547 L 238.01367 699.90039 L 238.32227 700.20312 L 238.90625 700.24805 L 239.70508 698.46875 L 240.55859 697.74805 L 240.98047 695.98633 L 242.49414 694.16992 L 242.92188 693.15234 L 243.49219 690.29102 L 243.65234 687.375 L 244.46289 684.89844 L 245.04297 683.12305 L 245.61914 680.29492 L 246.60547 678.82227 L 246.89844 677.17773 L 247.83789 676.13672 L 249.02734 675.96484 L 250.84766 674.66211 L 252.86719 672.52344 L 254.75195 670.52148 L 255.13477 670.22461 L 257.65625 668.2793 L 260.71094 664.22461 L 261.20508 662.46289 L 262.11523 661.45508 L 263.69727 658.4082 L 263.5293 657.77734 L 262.91016 656.96289 L 264.04492 654.52148 L 264.7793 652.9375 L 265.46094 649.86133 L 266.61914 647.46484 L 266.22266 646.09766 L 265.71875 644.36328 L 265.71289 644.08789 L 265.69531 643.12695 L 266.49414 641.8457 L 268.28125 641.08203 L 271.43945 640.2207 L 271.75977 639.83984 L 272.67969 638.74219 L 273.42383 638.45898 L 274.18945 638.63086 L 275.59375 640.01562 L 276.11523 640.0957 L 281.31836 639.5957 L 282.51172 638.61328 L 282.50586 637.6582 L 281.9707 636.51758 L 282.02734 636.23047 L 283.54297 634.03516 L 284.13867 633.54688 L 285.00781 633.52148 L 285.78906 633.5 L 286.76953 633.80859 L 289.41016 635.94727 L 291.30078 636.70508 L 293.49414 636.49609 L 297.02148 635.37305 L 297.40039 634.60938 L 296.41602 632.5 L 297.10352 631.01367 L 297.24414 630.23047 L 297.25195 629.89844 L 297.26953 629.23828 L 297.10352 628.46289 L 296.91992 627.59375 L 297.0332 627.01953 L 300.97852 620.43164 L 301.38477 619.05859 L 301.99805 616.98438 L 302.85742 612.2793 L 302.95117 611.9043 L 304.05469 607.38281 L 304.11719 607.12109 L 303.98047 606.71094 L 303.87695 606.40625 L 303.75781 606.04102 L 302.92383 605.86914 L 302.13867 606.11914 L 300.27148 607.47656 L 299.74219 607.45117 L 299.16211 607.42578 L 297.4668 608.0332 L 296.14844 607.84961 L 295.60352 608.05078 L 295.57227 608.94336 L 295.54297 609.71875 L 295.08008 610.25781 L 294.75391 610.64062 L 294.625 610.69727 L 293.98828 610.9707 L 293.43164 611.21094 L 293.0957 611.35547 L 292.03516 611.47656 L 289.96289 612.24805 L 289.11523 611.6875 L 288.61523 611.35547 L 288.30859 611.47656 L 287.82031 612.41992 L 287.70703 612.63672 L 287.4707 612.61719 L 286.58398 612.53516 L 286.46289 612.52148 L 285.50195 611.68945 L 284.48633 610.8125 L 284.33008 610.48438 L 282.69531 607.07812 L 280.44336 603.85938 L 280.375 603.51758 L 280.30859 603.17773 L 279.32617 598.28711 L 278.94336 597.45898 L 278.27734 596.5332 L 277.77344 596.05078 L 275.93164 594.2793 L 274.93359 592.91211 L 272.0293 587.85352 L 271.27344 587.00391 L 268.86914 584.29688 L 266.66602 581.41211 L 264.33789 578.36328 L 262.5293 574.5625 L 259.25195 572.53516 L 258.48828 572.56055 L 257.14648 572.60352 L 257.02344 572.2207 L 257.33984 571.60547 L 258.95703 570.27539 L 259.46094 568.13672 L 260.29883 566.98633 L 261.14648 565.82227 L 261.00391 565.01562 L 260.40039 565.31055 L 259.3125 565.84375 L 258.91211 565.67773 L 249.22266 571.29492 L 242.45703 559.625 L 249.70703 555.42188 L 248.44727 553.89648 L 259.31055 544.93164 L 256.32422 541.3125 L 265.28125 533.91992 L 266.02148 528.78711 L 266.49023 527.81055 L 266.70312 527.61523 L 262.3418 527.61523 L 262.3418 436.25586 L 261.57422 435.60547 L 259.41016 432.10547 L 259.13477 431.75781 L 258.98828 431.3418 L 258.49805 429.92383 L 257.12305 425.95703 L 257.40039 425.23828 L 259.61914 423.49609 L 260.48047 422.49805 L 260.7168 421.63672 L 260.67773 418.09961 L 261.46094 415.65625 L 261.32422 415.02734 L 260.89648 414.57617 L 260.58398 414.25195 L 258.88672 413.27734 L 256.81445 412.55469 L 256.08594 412.21484 L 254.89062 411.19141 L 253.59766 411.25586 L 252.12109 410.48242 L 251.38281 409.71094 L 250.86523 408.5332 L 249.84375 404.15625 L 249.70117 403.94727 L 233.82617 403.94727 L 233.82617 394.08008 L 231.38281 394.08008 L 231.38281 382.85547 L 236.5293 382.85547 L 236.70703 382.80078 L 237.38477 382.85547 L 238.97656 382.85547 L 240.95117 382.62305 L 241.97656 382.85547 L 255.28125 382.85547 L 255.28125 383.66992 L 258.08789 383.66992 L 258.08789 385.36719 L 259.05273 385.45898 L 263.15625 383.84961 L 263.15625 375.97656 L 278.27539 375.97656 L 278.27539 368.46289 L 298.37891 368.46289 L 298.80859 367.49609 L 298.97461 366.53516 L 298.98047 365.22852 L 297.96484 362.34375 L 298.22656 361.23438 L 299.23047 360.22656 L 300.44531 359.00977 L 302.01758 358.79492 L 302.68945 358.45117 L 302.94531 358.32227 L 303.39258 357.41797 L 304.66211 356.72461 L 304.82617 354.98438 L 306.12305 354.10938 L 307.83398 351.55859 L 308.16992 347.51172 L 307.59961 344.36328 L 307.82812 343.21875 L 309.03906 341.83203 L 309.5 341.30078 L 309.84961 339.76562 L 309.32031 337.56836 L 309.73438 335.81445 L 309.86133 335.45898 L 311.04492 332.1875 L 311.14062 331.0918 L 311.65234 330.11719 L 311.89258 329.46289 L 312.42383 329.08594 L 311.50977 328.06836 L 311.33594 327.87695 L 311.09375 327.49609 L 311.06836 327.18555 L 310.94727 326.58203 L 310.91016 326.40625 L 310.68945 326.18359 L 310.6875 326.17969 L 310.48633 325.97461 L 310.50586 325.87891 L 310.58984 325.45508 L 309.79297 323.86914 L 309.13281 323.33789 L 309.02148 323.24805 L 308.75781 322.93555 L 308.70508 322.2168 L 294.36328 322.2168 L 294.36328 303.63867 L 294.31445 303.20508 L 294.07227 302.11523 L 294.36328 300.6582 L 294.36328 287.61133 L 313.20117 287.61133 L 313.03711 286.51367 L 313.32031 285.23633 L 314.80859 283.85547 L 316.45703 282.63477 L 316.78906 282.39062 L 317.76172 281.55273 L 319.54492 280.69141 L 320.60547 280.45117 L 321.23047 279.97656 L 321.62305 276.12305 L 321.82422 275.62305 L 322.79297 274.67969 L 322.84766 273.9707 L 322.13867 273.49609 L 320.94531 273.17383 L 319.85352 272.17969 L 319.31445 271.94727 L 318.90625 271.25391 L 317.82812 269.44531 L 316.6543 267.15625 L 316.32812 266.52148 L 316.44727 265.29883 L 316.01367 264.0957 L 315.21484 262.10547 L 315.25195 260.90625 L 316.39062 258.26172 L 318.04688 256.41797 L 319.27148 253.39258 L 320.0332 252.30859 L 320.59375 252.04688 L 321.11914 250.33594 L 321.24414 248.91406 L 320.69727 247.77344 L 320.42383 246.89844 L 319.2793 245.30469 L 317.72266 244.13867 L 316.90234 244.30859 L 315.52344 243.35938 L 317.3457 239.67773 L 317.48438 239.43164 L 318.30273 237.99609 L 319.49023 235.91406 L 320.39062 233.55859 L 320.81445 232.13672 L 320.85156 230.86328 L 320.0625 228.09375 L 319.72266 225.98438 L 319.14648 221.68164 L 318.97852 220.43945 L 318.36133 218.47266 L 317.78125 218.06445 L 317.72852 217.35742 L 317.13867 216.13867 L 317.01953 215.89062 L 316.7793 214.87109 L 317.22461 212.57031 L 317.33594 209.77539 L 318.11523 206.58203 L 317.55859 204.04688 L 318.01562 202.3457 L 317.74023 201.25586 L 317.94727 200.89648 L 319.65234 200.60938 L 320.21094 200.21094 L 320.20508 200.0918 L 320.11914 198.85547 L 319.45898 195.60352 L 319.01758 195.01172 L 318.7207 194.91797 L 316.82422 194.32227 L 316.52539 193.72656 L 315.65039 193.00586 L 314.94531 191.99805 L 314.81836 188.11523 L 313.28516 183.8418 L 312.76953 183.2207 L 311.38867 182.36719 L 310.71484 181.07617 L 309.55469 179.51172 L 307.62305 177.17188 L 306.31445 175.12695 L 305.01172 173.88477 L 304.80078 173.40039 L 304.77734 172.98047 L 304.77344 172.94922 L 304.74805 172.55469 L 304.66211 172.14258 L 304.5332 171.53516 L 305.72656 170.97656 L 306.35352 170.77734 L 307.91406 170.98828 L 308.01758 171.01953 L 308.58594 171.19727 L 308.625 171.20898 L 311.10742 172.00195 L 314.66992 171.65625 L 317.26758 171.03711 L 318.57617 170.33594 L 319.20703 169.9668 L 319.95703 168.84766 L 320.25781 168.39844 L 322.0918 166.64062 L 322.5332 165.56445 L 323.53906 163.11719 L 325.45312 160.41992 L 325.29297 159.38672 L 324.44531 158.19531 L 323.81836 157.70703 L 323.73242 157.00977 L 324.125 156.25781 L 326.07812 154.87109 L 327.14648 154.10547 L 329.61719 151.80469 L 331.74219 149.13867 L 332.72461 146.64453 L 333.31445 145.81641 L 334.12695 144.42383 L 335.56641 142.54688 L 338.29688 139.76562 L 339.67773 139.17383 L 340.98047 138.93164 L 341.51367 138.98438 L 341.54492 138.99805 L 342.30664 139.33203 L 342.89453 139.58984 L 344.14258 139.90234 L 345.07227 140.14258 L 346.69141 140.07227 L 347.25195 140.10742 L 348.20898 139.32227 L 348.68555 138.76172 L 350.49414 137.17188 L 351.31445 136.86133 L 352.13281 136.67773 L 352.47461 136.60156 L 354.82422 135.75 L 358.83398 131.61133 L 360.36914 130.52344 L 360.71094 130.2793 L 362.66992 129.38672 L 364.11719 128.08789 L 364.85938 125.77344 L 365.49609 125.19531 L 366.2207 123.80273 L 367.96289 122.74414 L 369.37695 121.40625 L 369.68945 120.90625 L 369.50781 120.12109 L 369.47266 120.05664 L 368.39453 118.15625 L 368.6543 116.70312 L 369.41992 115.75586 L 369.46484 115.70117 L 370.57617 115.54102 L 371.55664 115.8418 L 371.60547 115.9082 L 372.58789 117.20117 L 373.04297 117.24805 L 373.10156 117.24414 L 374.43945 117.13281 L 374.56055 117.06055 L 374.72461 116.95703 L 374.73828 116.94922 L 374.86523 116.86719 L 374.96484 116.80664 L 375.25781 116.62109 L 375.32422 116.52734 L 375.85742 115.76953 L 375.87109 115.7168 L 376.16797 114.5918 L 376.35352 113.8457 L 376.80273 112.98828 L 377.58594 112.4082 L 378.39258 111.33203 L 378.81445 109.92969 L 378.83203 109.875 L 378.79297 109.4082 L 378.68945 108.2168 L 379.03906 107.40625 L 379.03906 107.40234 L 379.0293 107.38086 L 380.95703 103.18945 L 381.07227 102.50586 L 382.12695 101.43945 L 382.76367 100.28711 L 384.29297 99.134766 L 384.60938 98.671875 L 384.79297 96.867188 L 387.5332 94.560547 L 388.44727 93.171875 L 389.31445 91.070312 L 389.76172 90.917969 L 389.9043 90.574219 L 390.28125 89.673828 L 390.91406 88.884766 L 391.69727 88.267578 L 393.27539 87.53125 L 393.11328 86.691406 L 391.48047 84.564453 L 389.03711 83.621094 L 388.48438 83.068359 L 387.0293 80.943359 L 385.16406 78.15625 L 383.17188 76.390625 L 382.50586 75.666016 L 381.15039 74.984375 L 380.99609 74.941406 L 378.41992 74.265625 L 377.54297 73.998047 L 376.1875 73.283203 L 375.22852 72.457031 L 374.42773 72.189453 L 374.41406 72.185547 L 373.625 71.998047 L 371.2793 72.396484 L 370.18945 72.279297 L 368.50781 71.679688 L 366.37109 71.689453 L 365.95312 71.59375 L 365.0957 71.396484 L 363.66992 70.724609 L 363.01562 70.738281 L 361.23047 73.458984 L 360.58984 73.828125 L 356.01367 75.248047 L 355.26758 74.015625 L 353.52734 72.361328 L 352.42578 71.857422 L 350.25 70.175781 L 349.14062 70.066406 L 349.71094 68.794922 L 349.72852 68.757812 L 350.28516 67.513672 L 350.23828 66.953125 L 349.45117 63.857422 L 348.82031 63.199219 L 348.58398 62.246094 L 348.35938 62.087891 L 347.41016 61.423828 L 347.42969 60.75 L 348.92383 59.378906 L 349.61914 58.058594 L 350.07031 55.367188 L 350.36719 53.947266 L 350.92773 53.017578 L 351.25195 51.208984 L 351.91992 50.279297 L 352.27344 48.009766 L 352.14844 47.128906 L 352.95703 44.179688 L 352.85352 43.867188 L 353.19922 43.261719 L 353.55273 42.648438 L 352.98828 41.919922 L 351.44531 41.138672 L 348.37305 40.431641 L 348.16797 39.378906 L 348.94531 38.513672 L 349.45508 37.257812 L 349.46484 35.855469 L 350.33398 34.244141 L 350.63086 33.074219 L 349.53125 31.083984 L 348.28125 29.134766 L 347.72266 27.939453 L 347.12695 27.492188 L 346.12695 27.347656 L 345.88867 29.613281 L 345.00586 30.585938 L 342.2168 31.183594 L 341.88281 31.220703 L 338.51758 31.625 L 336.67188 32.023438 L 334.89648 32.279297 L 333.07422 32.146484 L 330.99414 31.882812 L 329.30859 31.568359 L 327.99805 31.603516 L 326.61719 30.222656 L 325.39453 26.619141 L 323.81641 24.75 L 322.74219 24.28125 L 321.68555 24.205078 L 319.98047 24.421875 L 319.54883 25.253906 L 319.33398 27.337891 L 318.95703 29.677734 L 318.38086 30.304688 L 316.95703 30.933594 L 314.79688 31.058594 L 314.70508 31.0625 L 313.82227 30.765625 L 313.45117 31.087891 L 311.30078 31.71875 L 310.18164 31.958984 L 308.7832 31.505859 L 307.09375 31.525391 L 306.27344 31.533203 L 305.09961 31.177734 L 303.88281 30.613281 L 303.51758 30.257812 L 303.31836 30.064453 L 302.73047 28.525391 L 302.45898 28.414062 L 301.12305 26.849609 L 300.27734 26.828125 L 299.05273 27.320312 L 298.99219 27.390625 L 297.60742 28.949219 L 296.08203 30.265625 L 294.66797 30.376953 L 293.52344 29.878906 L 291.27148 30.046875 L 290.18945 30.365234 L 289.20312 30.248047 L 288.57227 29.773438 L 286.91797 26.960938 L 284.72266 25.46875 L 282.66211 24.753906 L 281.66016 24.96875 L 279.07031 24.044922 L 277.22461 24.421875 L 277.18945 24.439453 L 276.51758 24.783203 L 276.47461 24.804688 L 275.96875 25.0625 L 275.46484 25.542969 L 275.38281 25.623047 L 274.57227 27.115234 L 274.54492 27.115234 L 274.50195 27.193359 L 274.42578 27.570312 L 274.28711 28.302734 L 274.20117 28.662109 L 274.80469 29.65625 L 274.81445 29.673828 L 274.77539 29.78125 L 274.5625 30.355469 L 274.45703 31.09375 L 274.42969 31.277344 L 274.42578 31.291016 L 274.73047 32.871094 L 275.14453 33.810547 L 275.57031 35.052734 L 275.58008 35.507812 L 275.58594 35.779297 L 275.50391 35.939453 L 275.44531 36.060547 L 273.50391 40.009766 L 272.29102 40.75 L 271.85547 41.087891 L 270.23242 42.261719 L 266.99414 43.353516 L 265.24219 44.148438 L 263.4375 45.654297 L 261.80469 45.779297 L 260.15039 46.21875 L 257.77539 46.964844 L 256.06445 46.845703 L 253.78906 46.175781 L 252.58984 46.179688 L 250.56445 47.587891 L 249.57617 49.455078 L 249.24219 50.330078 L 248.2168 51.126953 L 246.69727 51.439453 L 245.98047 51.589844 L 245.93945 49.746094 L 246.25586 48.710938 L 245.61328 48.091797 L 245.37891 47.865234 L 244.02344 46.533203 L 243.51562 45.490234 L 242.89648 44.650391 L 242.56836 43.691406 L 241.48828 43.6875 L 240.18164 43.767578 L 237.61914 42.228516 L 236.09375 43.269531 L 236.68945 44.664062 L 236.14062 45.529297 L 235.67773 45.830078 L 234.25391 46.619141 L 232.06055 47.330078 L 230.89453 48.181641 L 229.01758 48.568359 L 227.63281 48.474609 L 226.05664 48.03125 L 224.31641 47.179688 L 224.01953 47.044922 L 224.03906 46.623047 L 224.79102 44.300781 L 226.21484 42.515625 L 228.04492 40.900391 L 227.34961 40.818359 L 226.12891 41.212891 L 223.74609 40.660156 L 221.44336 41.378906 L 220.24023 41.316406 L 219.12305 40.613281 L 217.54297 39.224609 L 215.0332 37.373047 L 214.4375 37.076172 L 213.50391 37.28125 L 212.51367 37.921875 L 211.01758 38.859375 L 209.05273 38.826172 L 207.82227 38.601562 L 207.44141 38.535156 L 206.21484 38.755859 L 206.13281 38.808594 L 203.62305 40.373047 L 201.68359 41.011719 L 198.93555 41.363281 L 197.5625 41.492188 L 197.25586 43.017578 L 197.06836 43.763672 L 195.68359 44.628906 L 194.74023 44.667969 L 192.51172 45.285156 L 191.64453 44.503906 L 191.19727 43.423828 L 192.4082 36.525391 L 192.44727 35.285156 L 192.05664 34.212891 L 191.48242 34.333984 L 190.30273 33.955078 L 189.81055 34.070312 L 188.71484 34.333984 L 188.43945 34.972656 L 188.54492 37.201172 L 188.44531 39.220703 L 188.05664 40.240234 L 186.97266 41.435547 L 186.18945 41.888672 L 183.60352 42.628906 L 181.20312 42.615234 L 180.64062 43.099609 L 179.46094 45.263672 L 178.54492 45.935547 L 177.23047 48.5 L 176.3125 49.03125 L 174.96094 48.873047 L 174.54492 49.347656 L 172.63477 50.625 L 172.01367 50.8125 L 170.48242 51.248047 L 169.8457 52.134766 L 169.8457 52.6875 L 169.8457 52.816406 L 169.74414 52.833984 L 168.11719 53.111328 L 166.77344 53.111328 L 166.23828 53.111328 L 165.33594 52.650391 L 164.68555 52.322266 L 164.68164 52.314453 L 164.66602 52.304688 L 164.00977 51.970703 L 162.66211 51.765625 L 162.38086 51.722656 L 162.18359 51.693359 L 159.85352 50.800781 L 159.68945 50.394531 L 159.55664 48.785156 L 159.17969 45.164062 L 158.26367 41.962891 L 157.94922 41.478516 L 157.79492 41.238281 L 157.69531 41.083984 L 157.64062 40.998047 L 157.1543 40.771484 L 154.51172 40.671875 L 154.4668 40.671875 L 153.5918 39.154297 L 152.93359 37.962891 L 152.60156 37.123047 L 152.41406 36.648438 L 152.53516 36.40625 L 152.84961 35.792969 L 152.96484 35.568359 L 152.71484 34.800781 L 153.55469 33.990234 L 155.89258 29.974609 L 156.56641 29.488281 L 157.13086 28.636719 L 157.18164 28.521484 L 157.61914 27.464844 L 158.35547 26.5 L 158.75195 25.982422 L 159.24023 25.349609 L 162.29883 23.699219 L 164.43555 21.738281 L 166.03711 20.904297 L 167.89453 19.939453 L 168.375 17.294922 L 168.14453 15.412109 L 167.95703 13.886719 L 167.91992 13.835938 L 166.31445 11.550781 L 164.34766 10.572266 L 162.87891 10.351562 L 160.56055 10.800781 L 157.7168 12.308594 L 156.73242 12.228516 L 156.69922 11.607422 L 156.38086 9.3476562 L 155.85352 6.7109375 L 155.45703 3.5566406 L 155.375 1.640625 L 155.34375 0.9375 L 155.32617 0.46679688 L 155.27539 0.42382812 L 154.87305 0.072265625 L 154.81445 0.068359375 L 153.88867 0 z M 197.66602 791.13281 L 194.98828 792.46094 L 194.7207 793.15039 L 194.76758 793.99609 L 195.98438 793.88867 L 196.91016 793.48047 L 197.96484 791.64648 L 197.66602 791.13281 z M 183.72461 793.73438 L 182.7168 793.90039 L 182.26367 794.32227 L 182.22461 794.82031 L 182.51367 795.19141 L 184.51758 795.7793 L 184.73438 796.13086 L 184.8125 796.25977 L 184.08008 797.5332 L 187.45508 799.2168 L 191.06055 799.99609 L 191.86133 799.80273 L 192.70508 799.08398 L 193.00977 798.42773 L 192.6875 798.08984 L 190.73438 797.7793 L 189.82227 796.63281 L 188.63477 795.99414 L 187.61328 794.70703 L 186.89453 794.57422 L 185.68359 794.78711 L 184.44727 793.90625 L 183.72461 793.73438 z M 197.29688 794.94727 L 196.85742 794.97266 L 196.12305 795.79492 L 195.82227 795.28125 L 193.81445 796.99609 L 193.47852 797.72461 L 193.59766 798.00391 L 194.54102 797.875 L 196.89062 796.17773 L 197.75781 795.27344 L 197.29688 794.94727 z "
     id="rect4" />
  <path
     style="fill:#006600"
     d="M 150 2.0273438 L 149.84375 2.0371094 L 148.80078 2.0957031 L 148.69531 2.2089844 L 147.52539 3.4472656 L 146.11133 3.8691406 L 144.41016 4.9648438 L 143.13086 5.7558594 L 140.97852 6.6191406 L 139.90234 7.8300781 L 138.90625 8.3964844 L 138.2207 8.5332031 L 135.26367 8.3339844 L 134.58008 8.5371094 L 132.95117 9.6660156 L 132.08398 9.8085938 L 130.76172 9.5761719 L 128.64258 10.230469 L 127.36914 10.283203 L 126.62695 9.9238281 L 123.48438 9.7734375 L 121.32422 10.322266 L 120.60352 10.34375 L 119.92188 10.394531 L 117.87891 10.158203 L 116.83594 10.455078 L 116.26367 10.761719 L 115.5 12.902344 L 114.57617 13.736328 L 111.30273 14.419922 L 107.58203 14.050781 L 106.57812 13.896484 L 104.60547 14.419922 L 103.07812 14.994141 L 101.71094 16.605469 L 100.94922 17.501953 L 99.992188 20.925781 L 99.589844 21.654297 L 97.494141 23.824219 L 94.425781 25.474609 L 91.673828 26.488281 L 90.015625 27.900391 L 88.876953 31.611328 L 88.148438 33.025391 L 87.21875 34.060547 L 85.699219 34.947266 L 83.384766 35.945312 L 82.677734 36.421875 L 82.855469 37.041016 L 80.519531 38.953125 L 79.792969 40.470703 L 79.75 41.074219 L 79.378906 41.585938 L 78.328125 41.740234 L 77.478516 42.841797 L 76.796875 43.013672 L 75.869141 42.630859 L 75.523438 42.970703 L 74.703125 46.189453 L 73.980469 47.705078 L 74.162109 49.892578 L 75.058594 51.123047 L 75.058594 51.902344 L 74.460938 52.992188 L 74.429688 53.771484 L 74.826172 55.238281 L 74.283203 56.677734 L 74.238281 58.730469 L 73.857422 60.552734 L 74.919922 65.134766 L 76.041016 68.054688 L 77.712891 70.107422 L 78.009766 70.470703 L 78.453125 70.732422 L 78.996094 71.419922 L 79.548828 72.345703 L 79.767578 75.126953 L 79.931641 77.171875 L 81.658203 82.205078 L 81.958984 83.160156 L 82.361328 84.771484 L 82.535156 87.589844 L 83.658203 92.066406 L 85.033203 94.373047 L 85.730469 96.636719 L 86.173828 96.996094 L 86.605469 97.064453 L 88.828125 97.416016 L 87.880859 97.990234 L 86.855469 97.621094 L 85.861328 97.265625 L 85.009766 96.136719 L 84.464844 94.574219 L 84.009766 94.136719 L 83.746094 95.349609 L 84.382812 98.080078 L 84.123047 100.17578 L 84.847656 100.95703 L 85.521484 102.16016 L 85.921875 104.51367 L 85.941406 104.54883 L 85.724609 106.08203 L 85.060547 111.3418 L 84.683594 112.45117 L 84.978516 113.35938 L 85.011719 114.84375 L 86.060547 117.12891 L 86.697266 117.62891 L 87.503906 119.46289 L 87.525391 120.63086 L 88.638672 123.54883 L 89.1875 124.29883 L 89.839844 125.33789 L 89.998047 127.12891 L 89.822266 128.73242 L 90.630859 132.12109 L 91.259766 133.26172 L 91.335938 134.84961 L 91.525391 139.57617 L 92.609375 143.45117 L 92.398438 145.04883 L 93.439453 147.33398 L 94.671875 148.41016 L 95.892578 151.29492 L 95.988281 151.52344 L 96.070312 151.71484 L 96.611328 152.99219 L 97.486328 154.01172 L 98.041016 154.30469 L 100.12891 153.79102 L 100.14258 153.79102 L 100.92188 153.79102 L 101.03711 153.99414 L 101.23438 154.37695 L 100.94531 155.01953 L 100.8457 155.24219 L 100.64453 155.5 L 100.30078 155.9375 L 99.845703 156.16992 L 99.236328 156.12695 L 98.048828 155.32812 L 98.025391 155.57812 L 98.171875 157.16406 L 98.761719 159.00977 L 98.699219 159.9668 L 99.509766 162.79492 L 99.417969 164.63477 L 99.943359 167.4375 L 99.855469 168.64648 L 100.26172 170.80273 L 100.84766 173.90625 L 100.99805 174.70703 L 100.55078 175.9668 L 100.52344 177.5918 L 100.14648 179.52148 L 100.10352 182.49219 L 99.490234 183.93164 L 99.082031 185.85742 L 99.087891 186.60938 L 99.097656 187.73047 L 98.800781 189.86328 L 96.486328 196.89258 L 95.796875 199.75391 L 94.396484 208.71094 L 94.21875 209.8418 L 95.625 209.8418 L 95.625 209.25977 L 97.080078 209.25977 L 97.080078 208.87109 L 97.621094 208.87109 L 97.658203 208.5957 L 98.171875 204.69922 L 98.652344 203.51172 L 99.259766 200.60938 L 99.673828 198.625 L 100.13672 199.3457 L 99.484375 201.42383 L 99.466797 203.4043 L 98.386719 207.02148 L 98.732422 207.53711 L 99.191406 207.4082 L 100.45312 206.15234 L 100.73828 205.36328 L 100.20703 203.90234 L 100.24414 203.22852 L 101.0957 201.21875 L 101.26758 201.04688 L 101.32422 201.29688 L 100.98047 203.72656 L 101.16211 204.56641 L 101.82422 204.21875 L 101.89844 203.61523 L 102.35547 203.57227 L 102.4707 204.29688 L 102.48438 204.58008 L 103.30273 205.24805 L 102.45898 205.57031 L 101.14648 206.50781 L 99.554688 208.38477 L 102.61523 208.38477 L 102.61523 208.87109 L 104.84766 208.87109 L 104.84766 209.25977 L 105.81836 209.25977 L 105.81836 209.8418 L 106.69141 209.8418 L 106.69141 216.44336 L 111.93359 216.44336 L 111.93359 224.20898 L 104.07031 224.20898 L 104.07031 227.37891 L 104.62695 229.11914 L 99.322266 230.81445 L 99.230469 231.33008 L 98.375 232.10938 L 97.037109 232.38477 L 96.800781 234.42969 L 96.730469 235.01367 L 95.277344 232.10742 L 90.375 233.67383 L 90.201172 233.93164 L 90.541016 234.30664 L 90.251953 235.69922 L 90.28125 237.10742 L 89.691406 237.41797 L 89.470703 237.99414 L 89.480469 239.68945 L 88.859375 241.62695 L 88.474609 241.7168 L 89.115234 235.71484 L 89.441406 233.97266 L 88.222656 234.36328 L 87.607422 237.72656 L 84.544922 250.9043 L 84.292969 251.98633 L 81.978516 261.97852 L 80.943359 267.78711 L 80.117188 270.92773 L 77.947266 279.16211 L 77 281.50195 L 74.589844 289.51367 L 74.345703 290.32422 L 72.644531 294.60742 L 72.107422 295.60547 L 71.671875 296.41992 L 70.896484 299.38867 L 69.691406 302.13281 L 70.388672 303.44141 L 71.470703 304.62891 L 72.775391 305.30469 L 73.740234 306.13672 L 74.363281 306.67578 L 75.166016 307.97852 L 76.027344 308.25781 L 77.228516 308.18945 L 79.800781 308.04492 L 83.013672 311.03516 L 84.353516 313.19531 L 85.060547 313.26953 L 85.400391 312.97266 L 86.083984 311.56641 L 87.304688 309.91797 L 87.966797 309.74219 L 86.808594 311.85742 L 86.341797 312.7168 L 86.021484 313.43555 L 85.484375 313.95508 L 84.814453 314.02344 L 83.908203 313.5332 L 82.599609 312.34375 L 82.101562 311.88867 L 82.246094 311.21094 L 81.648438 310.49609 L 81.421875 310.22461 L 78.507812 309.12891 L 77.121094 308.94727 L 77.052734 309.72852 L 78.451172 311.64062 L 79.337891 312.44531 L 78.394531 312.63086 L 77.958984 312.4375 L 77.310547 311.375 L 76.980469 310.75195 L 76.435547 309.73242 L 76.068359 309.0332 L 75.423828 308.92188 L 75.150391 309.07617 L 75.074219 313.32031 L 73.300781 317.5332 L 71.503906 324.13672 L 70.708984 326.5957 L 69.205078 331.08789 L 67.71875 336.11523 L 67.642578 336.37695 L 67.408203 336.98633 L 67.263672 337.36719 L 63.962891 346.0332 L 62.705078 350.03906 L 61.849609 352.75977 L 60.458984 355.50195 L 60.234375 355.94922 L 60.0625 356.52539 L 59.345703 358.94336 L 55.548828 368.50391 L 54.875 369.72461 L 54.542969 371.32812 L 54.375 372.12891 L 53.806641 373.66406 L 53.248047 375.18164 L 53.1875 377.87305 L 52.128906 381.38086 L 50.667969 387.4707 L 49.619141 391.85156 L 49.689453 392.51172 L 49.722656 392.83789 L 50.626953 393.19727 L 50.900391 393.60547 L 50.957031 394.375 L 50.496094 395.58984 L 47.806641 399.62109 L 44.386719 403.4707 L 43.755859 404.96875 L 43.359375 405.34766 L 42.455078 405.44727 L 42.40625 406.76367 L 43.226562 407.48438 L 42.755859 408.25977 L 41.912109 408.70898 L 41.332031 407.47461 L 40.5625 407.49609 L 38.869141 408.88867 L 35.769531 412.82422 L 35.769531 423.23828 L 35.9375 423.04297 L 36.580078 423.24414 L 36.976562 423.89258 L 36.800781 424.36328 L 35.769531 424.29688 L 35.769531 425.20117 L 36.128906 426.25391 L 35.914062 426.69141 L 35.769531 426.7168 L 35.769531 433.14844 L 15.75 433.14844 L 16.015625 434.53516 L 15.744141 435.61914 L 17.261719 437.27734 L 17.75 438.19922 L 17.552734 439.34375 L 17.9375 440.31641 L 18.167969 441.10547 L 18.935547 442.07812 L 19.263672 443.71484 L 19.078125 445.50195 L 18.304688 448.35352 L 18.544922 449.75586 L 18.445312 450.07617 L 17.804688 452.18164 L 17.679688 453.81836 L 16.103516 459.13867 L 15.039062 461.83984 L 12.332031 467.41797 L 12.105469 468.28516 L 11.867188 469.18945 L 10.654297 470.76758 L 9.5078125 472.97266 L 11.230469 472.97266 L 11.230469 495.12109 L 9.8691406 495.12109 L 9.5097656 496.29688 C 9.4610253 496.29688 8.5885563 498.62931 7.7324219 500.94531 L 9.046875 500.94531 L 9.046875 506.45508 L 26.412109 506.45508 L 26.412109 531.20312 L 31.611328 531.20312 L 31.611328 531.72266 L 32.546875 531.72266 L 32.546875 532.45117 L 33.169922 532.45117 L 33.169922 532.95508 L 35.923828 533.07812 L 37.472656 532.54297 L 37.992188 532.36133 L 39.78125 532.625 L 41.130859 531.57422 L 43.384766 531.02148 L 44.654297 530.29688 L 45.443359 529.26172 L 40.498047 528.29492 L 41.384766 523.76172 L 41.384766 517.16602 L 39.617188 517.16602 L 39.617188 515.39844 L 37.746094 515.39844 L 37.746094 511.6543 L 39.617188 511.6543 L 39.617188 510.92773 L 46.583984 510.92773 L 46.583984 509.7832 L 47.416016 509.7832 L 47.416016 509.57422 L 47.519531 509.57422 L 47.519531 508.95117 L 51.474609 508.95117 L 52.095703 507.69922 L 52.644531 506.99219 L 53.257812 506.20312 L 54.035156 505.89844 L 55.080078 504.62109 L 56.222656 503.23242 L 56.791016 501.91797 L 56.820312 501.58984 L 56.847656 501.3125 L 57.009766 499.49023 L 57.714844 497.65234 L 59.148438 495.54688 L 60.580078 495.86719 L 60.226562 496.60938 L 60.068359 497.36328 L 60.214844 498.98438 L 60.039062 500.51953 L 59.421875 502.23047 L 59.619141 503.09961 L 61.398438 504.64258 L 61.582031 505.33594 L 60.78125 507.9043 L 61.087891 508.84375 L 62.423828 509.5293 L 62.582031 509.83398 L 62.310547 510.45508 L 62.681641 510.875 L 65.189453 509.27148 L 65.332031 509.32812 L 64.816406 511.02539 L 64.818359 511.03125 L 65.091797 511.03125 L 65.091797 511.6543 L 68.212891 511.6543 L 68.212891 512.2793 L 70.8125 512.2793 L 70.8125 512.90234 L 71.955078 512.90234 L 71.955078 514.35742 L 72.371094 514.35742 L 72.371094 527.875 L 56.367188 527.875 L 55.703125 531.26953 L 53.064453 530.75391 L 52.960938 532.9668 L 53.449219 533.5 L 53.925781 533.35742 L 54.638672 532.29492 L 54.869141 531.94727 L 55.404297 531.5918 L 57.992188 531.37305 L 59.435547 531.69922 L 61.255859 531.78125 L 61.595703 531.79297 L 62.9375 532.25195 L 62.980469 532.26367 L 64.144531 533.07031 L 64.171875 533.13086 L 64.392578 533.61914 L 64.035156 533.99609 L 62.716797 533.07422 L 62.285156 532.77344 L 61.873047 532.83789 L 61.595703 534.38281 L 59.376953 533.36523 L 58.716797 533.375 L 58.212891 533.77344 L 57.925781 534.00195 L 57.394531 535.38086 L 57.832031 536.23828 L 58.566406 536.78711 L 58.974609 537.67773 L 59.613281 538.41602 L 59.669922 538.76758 L 59.402344 538.92578 L 58.107422 537.70508 L 57.130859 537.63086 L 56.240234 536.80859 L 55.828125 536.83984 L 54.792969 537.44336 L 54.435547 537.29297 L 53.794922 535 L 53.296875 534.85352 L 51.978516 536.47852 L 51.953125 536.50781 L 50.738281 536.48828 L 50.035156 537.38867 L 49.355469 537.61328 L 49.240234 537.94141 L 50.105469 539.43555 L 50.330078 539.5293 L 51.140625 539.85938 L 51.447266 540.29688 L 51.460938 541.50195 L 52.78125 542.54297 L 53.066406 544.18945 L 53.976562 545.82617 L 53.998047 546.17773 L 53.652344 546.69727 L 52.582031 545.74414 L 51.912109 544.55469 L 51.355469 544.02734 L 51.126953 543.22852 L 49.929688 542.46094 L 49.197266 540.88477 L 48.955078 540.73828 L 48.402344 540.4082 L 47.431641 540.4082 L 46.777344 541.02148 L 46.626953 543.33203 L 46.171875 543.29492 L 45.214844 541.48438 L 44.275391 540.91602 L 42.746094 540.88477 L 42.449219 540.58398 L 42.970703 539.69336 L 43.160156 539.36328 L 43.773438 539.21289 L 45.511719 540.25977 L 46.349609 540.30664 L 46.910156 539.87695 L 46.646484 539.57812 L 43.035156 538.02539 L 42.222656 536.80859 L 41.494141 536.41797 L 40.978516 535.9082 L 42.208984 534.08203 L 41.925781 533.5 L 41.503906 533.41797 L 39.488281 534.76758 L 39.476562 534.77734 L 38.337891 535.0332 L 38.001953 535.10742 L 37.816406 535.15039 L 37.154297 535.29492 L 36.808594 535.29492 L 36.808594 538.68945 L 38.472656 538.68945 L 38.472656 563.02148 L 37.328125 563.02148 L 37.328125 563.37891 L 37.324219 564.76562 L 36.830078 566.60742 L 36.791016 566.70117 L 36.542969 567.28516 L 35.433594 569.89453 L 34.392578 571.42578 L 33.300781 573.62891 L 32.966797 574.75195 L 33.144531 575.30859 L 35.177734 575.72461 L 36.341797 575.57031 L 36.787109 575.37695 L 40.945312 573.57227 L 41.837891 573.50781 L 42.689453 573.76953 L 43.861328 573.1875 L 44.884766 573.50586 L 45.621094 572.14062 L 46.158203 571.89258 L 47.349609 572.08984 L 49.484375 572.96289 L 50.580078 572.7793 L 51.460938 573.00195 L 52.208984 572.3125 L 52.40625 572.26172 L 52.40625 559.48633 L 69.371094 559.48633 L 70.273438 557.53906 L 75.144531 559.79883 L 75.283203 559.79883 L 75.283203 559.86328 L 84.044922 563.92773 L 83.646484 564.78906 L 85.576172 564.78906 L 85.576172 565.51758 L 87.867188 565.51758 L 88.105469 565.1875 L 88.369141 562.86523 L 87.884766 561.27148 L 87.054688 560.19531 L 86.630859 560.08008 L 85.576172 560.89844 L 85.099609 560.82617 L 84.910156 560.79883 L 85.394531 559.17188 L 85.523438 559.14062 L 86.960938 558.78516 L 88.728516 556.67969 L 88.935547 555.50586 L 89.3125 553.37891 L 89.75 553.74023 L 89.796875 554.94531 L 89.132812 558.10352 L 89.476562 559.11133 L 91.0625 561.66016 L 91.259766 562.60352 L 91.121094 563.47852 L 90.990234 564.31836 L 90.257812 565.82422 L 89.755859 566.45312 L 90.568359 566.45312 L 90.568359 567.80469 L 93.271484 567.80469 L 93.271484 570.61328 L 96.910156 570.61328 L 96.910156 579.34766 L 91.503906 579.34766 L 91.503906 587.45703 L 84.357422 587.45703 L 85.226562 592.20703 L 85.240234 592.27148 L 85.925781 596.01758 L 86.003906 597.60352 L 86.259766 602.76367 L 86.001953 608.91016 L 85.556641 611.51758 L 85.378906 612.56641 L 83.492188 620.70117 L 80.644531 629.82812 L 80.496094 630.22656 L 76.546875 640.81445 L 74.603516 644.24609 L 73.890625 644.93164 L 72.496094 645.69922 L 72.025391 646.33984 L 72.160156 646.82227 L 72.318359 646.93164 L 72.841797 647.27344 L 74.488281 647.23047 L 75.160156 647.50586 L 76.371094 648.6582 L 80.646484 650.49414 L 81.458984 651.32031 L 82.369141 653.13672 L 82.566406 655.14453 L 83.074219 657.13281 L 83.226562 659.72656 L 83.40625 662.81641 L 83.726562 664.56445 L 83.462891 667.37305 L 83.203125 669.70508 L 82.107422 675.0625 L 82.0625 677.01172 L 81.640625 678.9375 L 81.748047 679.55469 L 82.898438 680.39453 L 83.308594 681.05859 L 83.587891 681.51758 L 83.900391 683.19727 L 84.101562 683.34766 L 86.236328 682.13086 L 86.601562 681.91992 L 87.619141 681.74805 L 88.683594 682.0918 L 89.169922 683.58398 L 89.291016 685.35938 L 90.496094 685.62305 L 90.716797 685.89453 L 89.904297 688.10547 L 90.169922 688.47461 L 91.177734 688.69336 L 91.478516 689.28711 L 91.095703 689.54492 L 89.548828 688.57617 L 89.388672 687.89062 L 89.96875 686.64844 L 89.826172 686.33398 L 88.775391 686.26367 L 88.570312 685.96094 L 88.138672 684.07617 L 88.107422 682.52148 L 87.884766 682.25 L 86.597656 682.48242 L 84.544922 683.61328 L 83.367188 684.97266 L 83.236328 685.58203 L 83.601562 687.54492 L 83.535156 688.05859 L 83.373047 689.33203 L 82.533203 691.69336 L 81.517578 697.7207 L 81.517578 699.2793 L 80.861328 702.37109 L 81.365234 703.82812 L 82.271484 705.14844 L 82.998047 706.60156 L 83.806641 708.23047 L 83.496094 709.24609 L 84.222656 711.99805 L 83.916016 715.74023 L 83.351562 718.11914 L 83.443359 719.56641 L 82.773438 723.51172 L 82.734375 725.35352 L 82.730469 725.54688 L 82.724609 725.89062 L 80.765625 733.64844 L 77.228516 740.18945 L 75.537109 743.31836 L 74.886719 744.51953 L 73.996094 745.50195 L 74.191406 746.94141 L 74.009766 748.83398 L 74.277344 749.27734 L 74.710938 749.17383 L 75.041016 749.50781 L 75.033203 750.96094 L 75.558594 752.76953 L 75.525391 753.83203 L 73.732422 758.74609 L 72.755859 760.74219 L 72.533203 761.20508 L 71.345703 762.88477 L 70.564453 763.43945 L 70.308594 763.47266 L 69.382812 763.59375 L 69.138672 764.0332 L 69.869141 765.79297 L 70.291016 767.57031 L 70.074219 769.46484 L 69.683594 770.76758 L 67.394531 775.82617 L 66.664062 777.13477 L 66.052734 778.22266 L 64.328125 779.9082 L 63.855469 780.9707 L 63.320312 784.19727 L 61.566406 785.95508 L 61.341797 786.67969 L 61.570312 787.55078 L 61.365234 788.06445 L 60.632812 788.78906 L 60.359375 789.79883 L 59.667969 790.66602 L 59.857422 790.9707 L 60.544922 791.06445 L 61.041016 791.41992 L 61.25 790.41211 L 61.738281 790.20312 L 63.441406 790.7168 L 64.869141 792.28125 L 64.949219 794.54492 L 65.257812 795.09375 L 65.658203 794.99023 L 65.914062 793.69727 L 67.333984 793.5625 L 67.666016 792.9707 L 67.685547 791.69336 L 68.587891 790.99219 L 70.052734 790.49805 L 70.757812 789.88086 L 71.863281 788.06445 L 73.15625 787.55078 L 74.501953 787.34766 L 75.291016 787.50195 L 75.75 787.22266 L 76.169922 786.3457 L 77.066406 785.50195 L 78.083984 784.93555 L 82.675781 783.93945 L 83.898438 784.45898 L 84.46875 784.34766 L 85.595703 783.38281 L 87.947266 782.9375 L 89.947266 781.875 L 90.478516 781.58984 L 96.677734 781.24023 L 98.521484 781.89648 L 98.886719 781.80078 L 98.671875 780.00586 L 99.035156 778.74023 L 100.16602 777.24414 L 102.19727 776.04492 L 103.84375 775.71875 L 103.76367 775.51172 L 103.2793 775.40625 L 102.90039 775.32422 L 103.57031 774.57031 L 103.85547 773.16797 L 104.10938 772.96289 L 104.43945 772.70117 L 105.2207 773.82031 L 105.82227 774.13281 L 106.5957 774.04688 L 107.21289 773.22461 L 107.29492 771.58594 L 107.66016 770.92578 L 108.41992 770.75586 L 108.60352 771.30469 L 107.79492 772.33203 L 107.59766 773.08203 L 107.64453 774.4707 L 106.7832 774.88281 L 106.00781 774.97266 L 105.91602 775.28711 L 106.17773 775.52539 L 108.20117 775.56445 L 108.66406 775.57422 L 109.84766 776.56055 L 110.5 776.66016 L 111.08203 776.23047 L 115.03906 776.42773 L 115.21094 775.88281 L 115.0332 774.88867 L 114.85156 773.88477 L 115.1875 773.1582 L 115.3457 772.81836 L 115.41211 772.67188 L 115.66016 772.13281 L 116.28711 771.23633 L 116.76367 771.2793 L 117.81055 770.56836 L 118.18945 771.18555 L 118.07422 771.54492 L 117.04492 772.45312 L 116.68555 772.76953 L 116.56641 772.95117 L 116.0957 773.66406 L 116.51758 777.7832 L 116.88281 778.21875 L 120.83398 778.87891 L 121.7207 779.49609 L 125.02344 780.69727 L 126.67578 780.7793 L 127.20703 780.80273 L 129.16406 780.63672 L 130.33594 780.31445 L 132.52539 778.86328 L 133.97266 778.58789 L 136 778.99023 L 137.39844 779.60742 L 138.8125 780.54492 L 140.9668 782.46289 L 142.21875 782.98633 L 143.33398 782.84375 L 143.64258 782.69336 L 145.11719 781.98633 L 146.36719 781.83789 L 148.16406 781.22461 L 149.60742 781.48828 L 150 781.42773 L 150 2.0273438 z M 98.625 231.03711 L 96.095703 231.8457 L 98.171875 231.55664 L 98.625 231.03711 z M 58.599609 497.75195 L 58.164062 498.52734 L 58.125 499.48633 L 58.130859 502.67383 L 58.394531 502.9375 L 59.033203 501.61719 L 59.5625 498.60742 L 59.242188 497.99219 L 58.599609 497.75195 z M 59.039062 503.70898 L 58.529297 503.91992 L 58.019531 504.5918 L 57.132812 506.92578 L 57.263672 507.30078 L 59.757812 507.12891 L 60.71875 505.92969 L 60.677734 505.33008 L 59.039062 503.70898 z M 54.833984 506.375 L 54.095703 506.74414 L 52.458984 508.2793 L 52.095703 509.10352 L 52.095703 509.57422 L 53.753906 509.57422 L 53.828125 509.49219 L 55.021484 507.10547 L 54.833984 506.375 z M 88.376953 558.6875 L 88.037109 558.81445 L 87.976562 559.49219 L 88.605469 560.61914 L 89.097656 560.72656 L 89.986328 563.2168 L 90.337891 563.86719 L 90.615234 563.85156 L 90.740234 563.13086 L 88.880859 558.97461 L 88.376953 558.6875 z "
     id="rect6" />
  <g
     id="g4258"
     clip-path="url(#clipPath4317)"
     transform="translate(-330,-0.00367924)">
    <g
       style="fill:#ffff00;fill-rule:evenodd;stroke:#000000;stroke-width:0.57300001;stroke-linecap:round;stroke-linejoin:round"
       transform="scale(2,2)"
       id="g8">
      <path
         inkscape:connector-curvature="0"
         id="path10"
         d="M 318.24,262.04 C 288.03,261.13 149.5,174.66 148.55,160.89 l 7.6496,-12.757 c 13.741,19.966 155.36,104.06 169.27,101.08 l -7.2299,12.823" />
      <path
         inkscape:connector-curvature="0"
         id="path12"
         d="m 154.59,146.4 c -2.7101,7.2937 36.149,31.318 82.903,59.754 46.752,28.434 87.065,46.006 90.053,43.486 0.18256,-0.32544 1.4701,-2.5409 1.352,-2.5232 -0.56001,0.84402 -1.9234,1.1104 -4.0506,0.49741 -12.631,-3.6433 -45.575,-18.765 -86.374,-43.506 -40.798,-24.743 -76.294,-47.544 -81.811,-57.232 -0.38363,-0.67116 -0.65702,-1.8962 -0.60146,-2.8487 l -0.13405,-0.002 -1.1747,2.0532 -0.16139,0.32191 -8.8e-4,0 z m 164.36,116.04 c -0.51238,0.92957 -1.4675,0.96044 -3.2816,0.76112 -11.3,-1.2506 -45.589,-17.925 -86.162,-42.213 -47.21,-28.26 -86.2,-54.01 -81.97,-60.74 l 1.1509,-2.0346 0.22665,0.0706 c -3.8037,11.405 76.948,57.578 81.702,60.522 46.724,28.947 86.115,45.851 89.601,41.458 l -1.2682,2.181 0,-0.002 z" />
      <path
         inkscape:connector-curvature="0"
         id="path14"
         d="m 240.17,169.23 c 30.237,-0.23901 67.55,-4.1319 89.023,-12.69 l -4.6265,-7.5168 c -12.692,7.0247 -50.21,11.644 -84.652,12.335 -40.736,-0.37483 -69.49,-4.1681 -83.897,-13.835 l -4.3672,8.0045 c 26.484,11.207 53.623,13.587 88.52,13.703" />
      <path
         inkscape:connector-curvature="0"
         id="path16"
         d="m 330.44,156.71 c -0.73904,1.1818 -14.743,6.0113 -35.373,9.5753 -13.988,2.1325 -32.234,3.9555 -55.004,3.9776 -21.633,0.0203 -39.305,-1.5196 -52.684,-3.3329 -21.656,-3.3955 -32.833,-8.1201 -36.965,-9.7896 0.39509,-0.78581 0.64908,-1.337 1.0301,-2.0708 11.895,4.736 23.124,7.5918 36.279,9.6158 13.291,1.8 30.75,3.362 52.276,3.3417 22.664,-0.0229 40.709,-1.9844 54.616,-4.0534 21.155,-3.4122 32.711,-7.8034 34.334,-9.8425 l 1.494,2.5788 -0.002,0 z m -4.0603,-7.6226 c -2.293,1.8415 -13.718,5.8932 -33.819,9.1034 -13.415,1.9226 -30.472,3.6433 -52.265,3.6645 -20.704,0.0203 -37.619,-1.375 -50.485,-3.2491 -20.414,-2.6661 -31.279,-7.4754 -35.196,-8.8776 0.3898,-0.67381 0.78666,-1.3423 1.1941,-2.0135 3.0479,1.5346 13.533,5.7909 34.226,8.7224 12.72,1.8036 29.661,3.1477 50.262,3.1265 21.69,-0.0221 38.553,-1.7762 51.883,-3.6883 20.205,-2.7799 31.077,-7.9472 32.728,-9.241 l 1.4728,2.4509 0,0.002 z" />
      <path
         inkscape:connector-curvature="0"
         id="path18"
         d="m 140.88,205.66 c 18.598,10.003 59.905,15.044 98.994,15.391 35.591,0.0564 81.958,-5.5016 99.297,-14.69 l -0.47712,-10.012 c -5.4246,8.4773 -55.113,16.609 -99.206,16.276 -44.093,-0.3325 -85.038,-7.1429 -98.687,-15.959 l 0.0794,8.9914" />
      <path
         inkscape:connector-curvature="0"
         id="path20"
         d="m 340.12,204.22 8.8e-4,2.3874 c -2.606,3.1159 -18.946,7.8255 -39.437,11.142 -15.595,2.391 -35.927,4.1945 -61.262,4.1945 -24.069,0 -43.263,-1.7163 -58.148,-4.0014 -23.529,-3.4264 -38.579,-9.4262 -41.6,-11.217 l 0.0132,-2.7852 c 9.0748,6.0334 33.661,10.447 41.917,11.798 14.788,2.2701 33.868,3.9732 57.817,3.9732 25.216,0 45.434,-1.7912 60.931,-4.1663 14.701,-2.1237 35.644,-7.6465 39.767,-11.324 l 8.8e-4,0 z m 0.01,-8.4922 8.8e-4,2.3874 c -2.606,3.1142 -18.946,7.8237 -39.437,11.14 -15.595,2.391 -35.927,4.1945 -61.262,4.1945 -24.069,0 -43.263,-1.7145 -58.148,-4.0014 -23.529,-3.4246 -38.579,-9.4245 -41.6,-11.216 l 0.0132,-2.7852 c 9.0748,6.0325 33.661,10.447 41.917,11.796 14.788,2.2719 33.868,3.9758 57.817,3.9758 25.216,0 45.434,-1.7921 60.931,-4.169 14.701,-2.1237 35.644,-7.6465 39.767,-11.324 l 8.8e-4,0.002 z" />
      <path
         inkscape:connector-curvature="0"
         id="path22"
         d="m 239.79,260.32 c -42.772,-0.25489 -79.421,-11.659 -87.16,-13.544 l 5.6433,8.8344 c 13.67,5.7503 49.424,14.32 81.927,13.371 32.504,-0.94809 60.91,-3.466 80.928,-13.211 l 5.7862,-9.1555 c -13.642,6.425 -60.068,13.639 -87.125,13.705" />
      <path
         style="stroke-width:0.55000001"
         inkscape:connector-curvature="0"
         id="path24"
         d="m 323.3,253.72 c -0.85016,1.2991 -1.7171,2.5823 -2.5963,3.8294 -9.4417,3.3293 -24.319,6.8245 -30.597,7.844 -12.824,2.6423 -32.665,4.594 -50.274,4.6029 -37.89,-0.55474 -68.905,-7.9719 -83.496,-14.299 l -1.1773,-2.0241 0.19225,-0.30427 1.9966,0.77435 c 25.948,9.2834 55.091,12.987 82.698,13.652 17.538,0.0617 35.095,-2.01 49.292,-4.5491 21.771,-4.3621 30.574,-7.65 33.275,-9.1405 l 0.68701,-0.38541 -8.8e-4,0 z m 5.0172,-8.2753 c 0.022,0.0256 0.0441,0.0503 0.0653,0.0776 -0.63585,1.0733 -1.2911,2.1652 -1.9622,3.2623 -5.0357,1.8 -18.702,5.7988 -38.659,8.5893 -13.149,1.7912 -21.322,3.526 -47.479,4.034 -49.015,-1.2471 -80.75,-10.831 -88.289,-13.195 l -1.1174,-2.1431 c 28.406,7.4154 57.422,12.592 89.408,13.121 23.931,-0.50976 34.112,-2.2719 47.152,-4.0499 23.271,-3.6186 34.996,-7.4498 38.515,-8.5558 -0.0441,-0.0635 -0.0961,-0.13053 -0.15433,-0.19932 l 2.5231,-0.9428 -0.002,0.002 z" />
      <path
         inkscape:connector-curvature="0"
         id="path26"
         d="m 328.83,197.76 c 0.13873,28.137 -14.26,53.386 -25.858,64.525 -16.408,15.759 -38.163,25.896 -63.569,26.363 -28.37,0.52117 -55.12,-17.974 -62.295,-26.099 -14.028,-15.885 -25.449,-36.057 -25.815,-63.243 1.7376,-30.709 13.793,-52.1 31.268,-66.769 17.475,-14.669 40.743,-21.813 60.121,-21.302 22.358,0.59003 48.475,11.558 66.521,33.332 11.823,14.266 16.943,29.748 19.627,53.193 z m -89.186,-96.342 c 54.485,0 99.296,44.338 99.296,98.703 0,54.364 -44.811,98.704 -99.296,98.704 -54.485,0 -98.924,-44.339 -98.924,-98.704 0,-54.365 44.439,-98.703 98.924,-98.703" />
      <path
         inkscape:connector-curvature="0"
         id="path28"
         d="m 239.91,101.08 c 54.534,0 99.011,44.483 99.011,99.022 0,54.538 -44.478,99.02 -99.011,99.02 -54.534,0 -99.011,-44.481 -99.011,-99.02 0,-54.539 44.478,-99.022 99.011,-99.022 z m -96.832,99.0224 c 0,53.26 43.736,96.842 96.832,96.842 53.097,0 96.833,-43.582 96.833,-96.842 0,-53.262 -43.737,-96.844 -96.833,-96.844 -53.096,0 -96.832,43.584 -96.832,96.844 z" />
      <path
         inkscape:connector-curvature="0"
         id="path30"
         d="m 239.99,109.31 c 49.731,0 90.693,40.821 90.693,90.704 0,49.884 -40.963,90.703 -90.693,90.703 -49.73,0 -90.693,-40.819 -90.693,-90.703 0,-49.883 40.964,-90.704 90.693,-90.704 z m -88.515,90.7034 c 0,48.685 39.979,88.524 88.515,88.524 48.536,0 88.515,-39.839 88.515,-88.524 0,-48.686 -39.978,-88.525 -88.515,-88.525 -48.536,0 -88.515,39.839 -88.515,88.525 z" />
      <path
         inkscape:connector-curvature="0"
         id="path32"
         d="m 243.98,100.68 -8.48545,0 0.01,198.96 8.51455,0 z" />
      <path
         inkscape:connector-curvature="0"
         id="path34"
         d="m 243.13,99.546 2.1598,0 0.0185,201.25 -2.1616,0 -0.0159,-201.25 z m -8.4213,0.0018 2.1766,0 0.003,201.25 -2.1783,0 0,-201.25 z" />
      <path
         inkscape:connector-curvature="0"
         id="path36"
         d="m 338.99,203.935 0,-7.3554 -5.99,-5.58 -34,-9 -49,-5 -59,3 -42,10 -8.48,6.28 0,7.3572 21.48,-9.637 51,-8 49,0 36,4 25,6 z" />
      <path
         inkscape:connector-curvature="0"
         id="path38"
         d="m 239.95,184.77 c 23.383,-0.0432 46.07,2.2154 64.065,5.7194 18.569,3.7121 31.637,8.3556 36.105,13.571 l -0.005,2.5823 c -5.3884,-6.4902 -22.973,-11.248 -36.518,-13.968 -17.858,-3.474 -40.393,-5.7168 -63.647,-5.6736 -24.538,0.0459 -47.387,2.3698 -64.984,5.8032 -14.12,2.8019 -32.951,8.3679 -35.302,13.858 l 0,-2.689 c 1.2911,-3.8003 15.313,-9.4792 34.984,-13.417 17.729,-3.4572 40.62,-5.7415 65.302,-5.7864 z m 0.01,-8.4922 c 23.383,-0.0423 46.07,2.2172 64.065,5.7194 18.569,3.7139 31.637,8.3556 36.105,13.571 l -0.005,2.5823 c -5.3884,-6.4885 -22.973,-11.247 -36.518,-13.966 -17.858,-3.4757 -40.393,-5.7185 -63.647,-5.6736 -24.538,0.0441 -47.276,2.3698 -64.875,5.8014 -13.626,2.5832 -33.226,8.3696 -35.412,13.86 l 0,-2.6908 c 1.2911,-3.7588 15.597,-9.6414 34.985,-13.417 17.729,-3.4572 40.62,-5.7397 65.302,-5.7864 z" />
      <path
         inkscape:connector-curvature="0"
         id="path40"
         d="m 239.48,132.96 c 36.849,-0.18433 68.99,5.1523 83.695,12.685 l 5.3638,9.279 c -12.781,-6.888 -47.456,-14.05 -89.005,-12.979 -33.854,0.20814 -70.027,3.7271 -88.176,13.41 l 6.4035,-10.709 c 14.895,-7.7241 50.022,-11.643 81.72,-11.684" />
      <path
         inkscape:connector-curvature="0"
         id="path42"
         d="m 239.97,140.62 c 21.017,-0.0556 41.325,1.1298 57.476,4.0437 15.041,2.7993 29.385,7.0009 31.436,9.2604 l 1.5901,2.8099 c -4.9881,-3.257 -17.401,-6.8836 -33.339,-9.906 -16.006,-3.0083 -36.3,-4.0049 -57.2,-3.9502 -23.722,-0.0811 -42.152,1.1712 -57.969,3.9291 -16.728,3.13 -28.334,7.6015 -31.197,9.7261 l 1.5583,-2.9704 c 5.5631,-2.8381 14.39,-6.2592 29.223,-8.9297 16.357,-2.988 34.983,-3.8841 58.423,-4.0128 l -8.8e-4,0 z m -0.009,-8.4843 c 20.113,-0.0529 39.972,1.068 55.452,3.8506 12.209,2.3768 24.283,6.0872 28.704,9.3892 l 2.3256,3.6954 c -3.9536,-4.3947 -18.836,-8.5593 -31.974,-10.892 -15.361,-2.6494 -34.395,-3.698 -54.508,-3.8656 -21.108,0.0591 -40.615,1.352 -55.752,4.1081 -14.441,2.7481 -23.76,6.0016 -27.703,8.5425 l 2.0451,-3.0868 c 5.4414,-2.8646 14.232,-5.4954 25.303,-7.6465 15.249,-2.7764 34.876,-4.0358 56.108,-4.0949 z" />
      <path
         inkscape:connector-curvature="0"
         id="path44"
         d="m 289.15,241.26 c -18.218,-3.4008 -36.469,-3.8947 -49.217,-3.7447 -61.407,0.71967 -81.244,12.609 -83.665,16.209 l -4.5894,-7.4815 c 15.634,-11.332 49.073,-17.687 88.587,-17.037 20.518,0.33602 38.224,1.6986 53.119,4.5835 l -4.2358,7.4727" />
      <path
         style="stroke-width:0.55000001"
         inkscape:connector-curvature="0"
         id="path46"
         d="m 239.58,236.46 c 17.082,0.25488 33.849,0.96044 50.033,3.9784 l -1.172,2.069 c -15.031,-2.7746 -31.055,-3.8365 -48.803,-3.75 -22.663,-0.17727 -45.585,1.9394 -65.541,7.6668 -6.2968,1.7524 -16.721,5.8006 -17.784,9.1458 l -1.1659,-1.9226 c 0.33601,-1.9773 6.6363,-6.081 18.414,-9.3901 22.858,-6.5458 44.239,-7.6491 66.019,-7.799 l 0,0.002 z m 0.77519,-8.5963 c 17.698,0.33073 35.975,1.1492 53.74,4.6681 l -1.2206,2.1537 c -16.042,-3.1847 -31.369,-4.2466 -52.415,-4.5702 -22.735,0.0414 -46.851,1.6625 -68.778,8.0372 -7.0791,2.062 -19.297,6.5202 -19.704,10.05 l -1.1659,-2.0655 c 0.26545,-3.2059 10.842,-7.388 20.358,-10.156 22.096,-6.4241 46.275,-8.076 69.186,-8.1174 z" />
      <path
         inkscape:connector-curvature="0"
         id="path48"
         d="M 327.58,247.38 320.201,258.829 299,240 244,203 182,169 149.81,157.99 156.67,145.27 159,144 l 20,5 66,34 38,24 32,23 13,15 z" />
      <path
         inkscape:connector-curvature="0"
         id="path50"
         d="m 148.65,158.29 c 5.646,-3.8294 47.139,14.655 90.555,40.834 43.301,26.254 84.677,55.921 80.942,61.473 l -1.2285,1.9323 -0.56354,0.4445 c 0.12083,-0.0864 0.74345,-0.84755 -0.0609,-2.906 -1.8449,-6.0704 -31.195,-29.491 -79.894,-58.895 -47.475,-28.309 -87.041,-45.371 -90.997,-40.494 l 1.247,-2.3892 -8.9e-4,0 z m 180.44,88.927 c 3.57,-7.052 -34.916,-36.044 -82.632,-64.272 -48.813,-27.666 -83.994,-43.951 -90.42,-39.095 l -1.4278,2.5991 c -0.0124,0.14287 0.052,-0.17727 0.35364,-0.4101 1.1685,-1.0195 3.1052,-0.95074 3.9792,-0.96662 11.065,0.16581 42.667,14.709 87.006,40.128 19.428,11.315 82.071,51.491 81.832,62.789 0.0168,0.97102 0.0803,1.1712 -0.28485,1.6519 l 1.5936,-2.4236 0,-0.002 z" />
    </g>
    <g
       transform="scale(2,2)"
       id="g52">
      <path
         style="fill:#ffffff;stroke:#000000;stroke-width:0.67036998"
         inkscape:connector-curvature="0"
         id="path54"
         d="m 180.6,211.01 c 0,16.271 6.6628,30.987 17.457,41.742 10.815,10.778 25.512,17.579 41.809,17.579 16.381,0 31.247,-6.6525 42.016,-17.389 10.769,-10.735 17.443,-25.552 17.446,-41.88 l -0.002,0 0,-79.189 -118.74,-0.14111 0.0123,79.278 0.002,0 z" />
      <path
         style="fill:#ff0000;stroke:#000000;stroke-width:0.50734001"
         inkscape:connector-curvature="0"
         id="path56"
         d="m 182.82,211.12 0,0.045 c 0,15.557 6.4414,29.724 16.775,40.009 10.354,10.305 24.614,16.712 40.214,16.712 15.681,0 29.912,-6.3606 40.222,-16.626 10.308,-10.265 16.697,-24.433 16.699,-40.044 l -0.002,0 0,-76.826 -113.84,-0.0185 -0.0697,76.748 m 91.022,-53.747 0.004,48.891 -0.0414,5.1717 8.8e-4,0 c 0,1.3608 -0.082,2.9122 -0.24076,4.2333 -0.92512,7.7294 -4.4801,14.467 -9.7451,19.708 -6.1636,6.1357 -14.671,9.9413 -24.047,9.9413 -9.327,0 -17.639,-3.9379 -23.829,-10.1 -6.3497,-6.32 -10.03,-14.986 -10.03,-23.947 l -0.0132,-54.023 67.94,0.12259 0.002,0.002 z" />
      <g
         id="castle3">
        <g
           style="fill:#ffff00;stroke:#000000;stroke-width:0.5"
           id="castle">
          <path
             style="stroke:none"
             inkscape:connector-curvature="0"
             id="path60"
             d="m 190.19,154.43 c 0.13493,-5.521 4.0524,-6.828 4.0806,-6.8474 0.0282,-0.0185 4.2314,1.4076 4.2173,6.8986 l -8.2978,-0.0512" />
          <path
             inkscape:connector-curvature="0"
             id="path62"
             d="m 186.81,147.69 -0.68172,6.3447 4.1406,0.009 c 0.0397,-5.2493 3.9739,-6.1225 4.0691,-6.1031 0.0891,-0.005 3.9889,1.1606 4.0929,6.1031 l 4.1511,0 -0.74962,-6.3932 -15.022,0.0379 0,0.002 z" />
          <path
             inkscape:connector-curvature="0"
             id="path64"
             d="m 185.85,154.06 16.946,0 c 0.35717,0 0.64908,0.35277 0.64908,0.78404 0,0.43039 -0.29191,0.78141 -0.64908,0.78141 l -16.946,0 c -0.35717,0 -0.64908,-0.35102 -0.64908,-0.78141 0,-0.43127 0.29191,-0.78404 0.64908,-0.78404 z" />
          <path
             inkscape:connector-curvature="0"
             id="path66"
             d="m 192.01,154.03 c 0.0185,-3.3126 2.2621,-4.2501 2.2736,-4.2483 8.8e-4,0 2.3423,0.96661 2.3609,4.2483 l -4.6344,0" />
          <path
             inkscape:connector-curvature="0"
             id="path68"
             d="m 186.21,145.05 16.245,0 c 0.34218,0 0.62263,0.31839 0.62263,0.70468 0,0.38717 -0.28045,0.70467 -0.62263,0.70467 l -16.245,0 c -0.34218,0 -0.62263,-0.31573 -0.62263,-0.70467 0,-0.38629 0.28045,-0.70468 0.62263,-0.70468 z" />
          <path
             inkscape:connector-curvature="0"
             id="path70"
             d="m 186.55,146.47 15.538,0 c 0.32719,0 0.59529,0.31662 0.59529,0.70379 0,0.38805 -0.2681,0.70467 -0.59529,0.70467 l -15.538,0 c -0.32719,0 -0.59529,-0.31662 -0.59529,-0.70467 0,-0.38717 0.2681,-0.70379 0.59529,-0.70379 z" />
          <path
             inkscape:connector-curvature="0"
             id="path72"
             d="m 191.57,135.88 1.2267,0.002 0,0.87136 0.89513,0 0,-0.89076 1.2567,0.004 0,0.88723 0.89778,0 0,-0.89076 1.2576,0 -0.002,2.0117 c 0,0.31574 -0.25398,0.52035 -0.54854,0.52035 l -4.4113,0 c -0.29633,0 -0.56972,-0.23724 -0.5706,-0.52652 l -0.003,-1.9879 8.8e-4,0 z" />
          <path
             inkscape:connector-curvature="0"
             id="path74"
             d="m 196.19,138.57 0.27691,6.4514 -4.3028,-0.0159 0.28486,-6.4523 3.741,0.0168" />
          <path
             inkscape:connector-curvature="0"
             d="m 190.94,141.56 0.13141,3.4775 -4.1256,0.002 0.11641,-3.4793 3.8786,0 -8.9e-4,0 z"
             id="cp1" />
          <use
             height="100%"
             width="100%"
             y="0"
             id="use77"
             x="10.609"
             xlink:href="#cp1" />
          <path
             inkscape:connector-curvature="0"
             d="m 186.3,139.04 1.1994,0.003 0,0.87224 0.8775,0 0,-0.89253 1.2294,0.004 0,0.889 0.87926,0 0,-0.89253 1.2302,0.002 -0.002,2.0117 c 0,0.31398 -0.2487,0.51859 -0.5362,0.51859 l -4.3169,0 c -0.28926,0 -0.55824,-0.23548 -0.55913,-0.52564 l -0.003,-1.9888 8.8e-4,0 z"
             id="cp2" />
          <use
             height="100%"
             width="100%"
             y="0"
             id="use80"
             x="10.609"
             xlink:href="#cp2" />
          <path
             style="fill:#000000;stroke:none"
             inkscape:connector-curvature="0"
             id="path82"
             d="m 193.9,140.61 c -0.0265,-0.62706 0.87661,-0.63411 0.86603,0 l 0,1.5364 -0.866,0 0,-1.536" />
          <path
             style="fill:#000000;stroke:none"
             inkscape:connector-curvature="0"
             d="m 188.57,142.84 c -0.003,-0.6059 0.83693,-0.61824 0.82635,0 l 0,1.1871 -0.826,0 0,-1.187"
             id="cp3" />
          <use
             height="100%"
             width="100%"
             y="0"
             id="use85"
             x="10.641"
             xlink:href="#cp3" />
        </g>
        <use
           height="100%"
           width="100%"
           x="0"
           id="use87"
           y="46.319801"
           xlink:href="#castle" />
        <use
           height="100%"
           width="100%"
           y="0"
           x="0"
           id="use89"
           transform="matrix(0.70460892,-0.70959585,0.70959585,0.70460892,-35.341459,275.10898)"
           xlink:href="#castle" />
      </g>
      <use
         height="100%"
         width="100%"
         y="0"
         id="use91"
         x="45.713799"
         xlink:href="#castle" />
      <use
         height="100%"
         width="100%"
         y="0"
         x="0"
         id="use93"
         transform="matrix(-1,0,0,1,479.79195,0)"
         xlink:href="#castle3" />
      <g
         style="fill:#ffffff"
         id="quina">
        <path
           style="fill:#003399"
           inkscape:connector-curvature="0"
           id="path96"
           d="m 232.636,202.406 0,0.005 c 0,2.2119 0.84927,4.2272 2.2118,5.6894 1.3652,1.4667 3.2454,2.3777 5.302,2.3777 2.0672,0 3.9439,-0.90487 5.3029,-2.3654 1.3581,-1.4587 2.2021,-3.47219 2.2021,-5.693 l 0,-10.768 -14.992,-0.0123 -0.0273,10.766" />
        <circle
           id="circle98"
           r="1.4859999"
           cy="195.735"
           cx="236.07401" />
        <circle
           id="circle100"
           r="1.4859999"
           cy="195.742"
           cx="244.392" />
        <circle
           id="circle102"
           r="1.4859999"
           cy="199.735"
           cx="240.22501" />
        <circle
           id="circle104"
           r="1.4859999"
           cy="203.916"
           cx="236.07401" />
        <circle
           id="circle106"
           r="1.4859999"
           cy="203.905"
           cx="244.383" />
      </g>
      <use
         height="100%"
         width="100%"
         x="0"
         id="use108"
         y="-26.016001"
         xlink:href="#quina" />
      <use
         height="100%"
         width="100%"
         y="0"
         id="use110"
         x="-20.799"
         xlink:href="#quina" />
      <use
         height="100%"
         width="100%"
         y="0"
         id="use112"
         x="20.745001"
         xlink:href="#quina" />
      <use
         height="100%"
         width="100%"
         x="0"
         id="use114"
         y="25.784"
         xlink:href="#quina" />
    </g>
  </g>
</svg>
